<mxfile host="Electron" modified="2023-09-24T03:47:54.957Z" agent="Mozilla/5.0 (Windows NT 10.0; Win64; x64) AppleWebKit/537.36 (KHTML, like Gecko) draw.io/21.7.5 Chrome/114.0.5735.289 Electron/25.8.1 Safari/537.36" etag="EID_AerupyPvD39_eWcq" version="21.7.5" type="device">
  <diagram name="Page-1" id="jVXPEOgB8IEpO5F41UJ3">
    <mxGraphModel dx="1320" dy="809" grid="1" gridSize="10" guides="1" tooltips="1" connect="1" arrows="1" fold="1" page="1" pageScale="1" pageWidth="850" pageHeight="1100" background="none" math="0" shadow="0">
      <root>
        <mxCell id="0" />
        <mxCell id="1" parent="0" />
        <mxCell id="L26KNRqS2CPZ2x79atgm-18" value="Cliente MÃ³vel" style="text;html=1;align=center;verticalAlign=middle;resizable=0;points=[];autosize=1;strokeColor=none;fillColor=none;" vertex="1" parent="1">
          <mxGeometry x="120.32" y="440" width="100" height="30" as="geometry" />
        </mxCell>
        <mxCell id="L26KNRqS2CPZ2x79atgm-19" value="Cliente Web" style="text;html=1;align=center;verticalAlign=middle;resizable=0;points=[];autosize=1;strokeColor=none;fillColor=none;" vertex="1" parent="1">
          <mxGeometry x="109.77" y="655.47" width="90" height="30" as="geometry" />
        </mxCell>
        <mxCell id="L26KNRqS2CPZ2x79atgm-21" value="" style="shape=datastore;whiteSpace=wrap;html=1;" vertex="1" parent="1">
          <mxGeometry x="685" y="410" width="60" height="60" as="geometry" />
        </mxCell>
        <mxCell id="L26KNRqS2CPZ2x79atgm-22" value="Banco de Dados" style="text;html=1;align=center;verticalAlign=middle;resizable=0;points=[];autosize=1;strokeColor=none;fillColor=none;" vertex="1" parent="1">
          <mxGeometry x="660" y="474.5" width="110" height="30" as="geometry" />
        </mxCell>
        <mxCell id="L26KNRqS2CPZ2x79atgm-56" style="edgeStyle=orthogonalEdgeStyle;rounded=0;orthogonalLoop=1;jettySize=auto;html=1;entryX=-0.003;entryY=0.575;entryDx=0;entryDy=0;entryPerimeter=0;" edge="1" parent="1" source="L26KNRqS2CPZ2x79atgm-46" target="L26KNRqS2CPZ2x79atgm-49">
          <mxGeometry relative="1" as="geometry" />
        </mxCell>
        <mxCell id="L26KNRqS2CPZ2x79atgm-46" value="" style="shape=image;verticalLabelPosition=bottom;labelBackgroundColor=default;verticalAlign=top;aspect=fixed;imageAspect=0;image=data:image/png,iVBORw0KGgoAAAANSUhEUgAABQAAAAL9CAQAAADeRgM1AAAuE0lEQVR4AezBC7imZ1nY+/99v++c10omWSskc0oIEBoIBQFBqkXQoFB0IwQjbbFaFOnVKkpl2+1VGumFltqr2L2tWrqp3Zpqg0WgeEC3FFCRwlZAkVMjh0yYmcwEknCYkEwys97n3tegKEdJwuRb3/c9/98v+HKSIDitkCRpfgRQFEWxOIJkAljfs/Wy6eHD3+TSOhDbakdsR7oH6g5OxJ0c5X31Hv54eN+RGzhtoGh8CcGXFiQwIUnSfBtpFMX8G5iArQf+Tj2jHl6XDjSgkL5SwWkF74935msO/3fuAAYmvqjgixtoFMAluz+1f8t9prOHlY0VJEmaFy2Px2318fzIoes5yWkJNOZXUtTu3StPr+fGw4JGwUQQQCB9JQooioxICt6X/3741YMfIwgaXyD4QkHQ4H5777yiHs8Da1+eGwSSJM2bqbgxDsX72m/yO0dvAwYm5lPS4KJv37gqH9oomAiCQDqTiqLICGjvGX7yyH8FksbnCT7fwAT3ffT0fe07OCtpFBQTRSBJ0vwogjGAZILD+Z/aLx89CAxMzJuB6aL97afqO4qaCBLp3lRMMQa8un74hg8zMPE5gs8WBG3fRXFVPTO2NygmgiAIJEmaP0VRwBAkdZifO/J/cpKBiXkyMO1/YntpXtyKxoA0C40Yog7FDxz+DQYaxV8a+CtB0Pb+g3hFPraNNZEESRIEkiTNoyBIEqiaOCeecNY3n/PuTx4mKebFwLT3u7gm1msiSaTZCKImzqkrd998/I8YKP7SwGcERR34N/ESVtpEkEiStDiCpFXjQPu7Z3/4+LsYacyDgenC5/AyxmoMSLOVNDK+deXWW9/CQPEXBv5cEAz7/zPf3yaCJJAkadEEycT2ePpZHz/+VgaKzTYw7X9m+4UKIJFmL6DIJ67ceOvbGCg+beC0IGgHfjqfM20wEEiStKiSVsUTV6+79U8ZKDZT0vY/ll+pEUikzRFQFd989h8d/yBJAQSnDUwX/mj962mDEUmSFl2LiBPTtxz7PZLGZgm44Pz8n3G/aiTSZmqRXD98/aEjBA0SSKY93zi9aGoMSJK0+LJa7YyX7b0PRbA5gqCGn4771QaJtLmyJu47/SzFpw0kdd7q+GouoJFIkrQMkmlYj93Hf5Ok2AxJ23tFvqgaSSBttqTlpSsfuvVPSSqB2vqP88E1MSBJ0rLIaap/cNHXMDEwe0Fdsj1+vBUQSHOhKl5wYJ0ik3bhWv1wKxJJkpZHANunfwY0Zi+p27+TBwOJNB+yWl5aV1JEwsYz4/wqAkmSlslQVU/Z81CKZLaCtndXPYeiIc2PmGrjBy/bxpQP2BZXZFFIkrRsGkN+JxDMVlLDY+KRBYk0PxLy0o89AfK2h0yPmIJEkqRlU1CPP7CTRjBLBfW0TCYCaZ5MQw3PgOSRwyoTgSRJyyYLLuWBFMksNbbxrQ0GpPkSLaavueiC5DFAIEnS8kk2cpUHAsHsJBx4SB0oCKT5ktXi4lOXJZciSdISiwcAxewExN8mKaR5E7RhCw/PuKggkCRpGUVRFwGN2QmoBwU0pPmTjXpIchYQSJK0pOosoJidBu2igEKaT38j2YUkScsqgF3MUtAet6XtbhBI8ycK9iWBJEnLLJixP91Z25HmUwCrI5Ik6cwJatdWtgGBNJdiNZEkSWfUlG1Aml9DIkmSpK4kkiRJ6srI3bFBIUnS5ksGJN1DI3fDMCJJ0hxoFJLuqZG7pghOtmfFbQSFJEmbJ1uLR/PPkXQPjdxlsXHDNUiSNAcO3Dr9cyTdQyN3WcWB9cOfICgkSdo8SauzkXSPjdxljR0bbBAUkiRtnqTFhKR7LJEkSVJXEkmSJHUlkSRJUlcSSZIkdSWRJElSVxJJkiR1JZEkSVJXEkmSJHUlkSRJUlcSSZIkdSWRJElSVxJJkiR1JZEkSVJXEkmSJHUlkSRJUlcSSZIkdSWRJElSVxJJkiR1JZEkSVJXEkmSJHUlkSRJUlcSSZIkdSWRJElSVxJJkiR1JZEkSVJXEkmSJHUlkSRJUlcSSZIkdSWRJElSVxJJkiR1JZEkSVJXEkmSJHUlkSRJUlcSSZIkdSWRJElSVxJJkiR1JZEkSVJXEkmSJHUlkSRJUlcSSZIkdSWRJElSVxJJkiR1JZEkSVJXRiRJ0vJqFJqlIJl7I5IkaTkVjSHQLBVMJMFcG5EkScuoRTK0j3GsnSLQLFSOXBDrUI1kjo1IkqTl0yLrA/Xj+Y66adcpNCMntuQaD62r4iHVSObWiCRJWjYtsr1l+5UHj6JZu4lrD7yhvTy+qRrJnBqRJEnLpUVw0/bnHDzKFiag0KwEMBy+Zc9z8s2xtxrJXBqRJEnLpeU4veHgexk5hWargMaWY9fve20+Z2rMqUSSJC2XbOQ7CQptjkbEOxokcyqRJEnLJSCOU2jzVBwvCOZUIkmSpK4kkiRJ6koiSZKWS0GdRRBos8S0O6CYU4kkSVouLalHUQTaHEnFo4HGnBqRJEnLZZiIJ+796qNvZwsbaNZGTu2/tD0FCObUiCRJWi5BsZL/ac/Tjl2PZu/UeXvaf461aiRzakSSJC2bqOKr4k37XpqvypuHQrNzzomnxT/O+7cimVsjkiRp+US1OMCLp5+Y2ik0Q5kJrZHMsRFJkrSMshqQJJqpakAy10YkSdJySrQZkrmXSJIkqSuJJEmSupJIkiSpK4kkSZK6kkiSJKkriSRJkrqSSJIkqSuJJEmSupJIkiSpK4kkSZK6kkiSJKkriSRJkrqSSJIkqSsjkiRpeTUKzVIQBHNuRJIkLacGkWjGqmgkc21EkiQtoxZZtA/FMU5moBloFVum84cHEtVI5tiIJElaPi2y/j/+5fZ377zlvafQjDxyPHzulgdNV8U3VCOZWyOSJGnZtMj67fVnvOtWNFPvOMmN3Pjgt3z8l/LKaiRzakSSJC2XFtGO7vj+d93KFiYKzVIwvO/OPT/AI+PiaiRzaUSSJC2Xyqz/cd1BRk6hWSsa47GP7vnN8QeniWQuJZIkablEY3g3QaHNUcTwrgYDcyqRJEnLJYDbKbR5Km4rCOZUIkmSpK4kkiRJOsMqmGOJJElaLgWcCwTaLBHnBhRzKpEkSculJe1vAYE2R1L1dQmNOTUiSZKWyzC1+MYDTzj8erayQaFZCkZO7nl0PaVBMqdGJEnScglgR/38xd9+8O1o1oqTey7Lq9lFEcypEUmStGyiiovufN2eq7e95uRNgWalyHPqqXw351UjmVsjkiRp+UQV5+TzTj4PCs1OI4BqJHNsRJIkLaOgFSSasWpAMtdGJEnSckq0GZK5l0iSJKkriSRJkrqSSJIkqSuJJEmSupJIkiSpK4kkSZK6kkiSJKkriSRJkrqSSJIkqSuJJEmSupJIkiSpK4kkSZK6kkiSJKkriSRJkrqSSJIkqSuJJEmSupJIkiSpK4kkSZK6kkiSJKkriSRJkrqSSJIkqSuJJEmSupJIkiSpK4kkSZK6kkiSJKkriSRJkrqSSJIkqSuJJEmSupJIkiSpK4kkSZK6kkiSJKkriSRJkrqSSJIkqSuJJEmSupJIkiSpK4kkSZK6kkiSJKkriSRJkrqSSJIkqSuJJEmSupJIkiSpK4kkSZK6kkiSJKkrI5IkSfpCRfHngmCpjEiSJOkzCiiKICP4tIIJCAIIlsCIJEmSTmsUQ0AkjfaJupUTBDs4O1eTBhRskCQLbkSSJElFiyGZ7ogPxe/WW+PDwy3cfupkxZat7Ix17pePbV/PRcPWRk0kwQIbkSRJ6ltRkTm0a+vX4pVH3s4X8wdcDfu+vp7Ot8VFUI0gWFAjkiRJPWtkBNdu/HS8+oaPclqQQPFXAmjUDW/iTRe+pD2j/WAcKGgkCymRJEnq1xQZt7artj7i2H88+lFGEigmJhqNRqPRmJgoIBkPHT7ykvHhvCRORTKxkBJJkqRebQwD76jLj/3EwRMMJBs0/jqNDZI8dMsNPzI8qT4wDEwsoESSJKlPjXF6DU86+jYGgonGXdFoBMOhN9Y3tzfFwMTCSSRJkno0ZXL1Jd9xw80MTBR3RzExHru+Pbl+PQYmFkwiSZLUnykGrjn6rN8/RTJxT2yQx27b+nen18XAxEJJJEmSejPFwO/v+F5goHFPNYbrT+R38p4YaCyQRJIkqS/FUDfEd33gDoKJr8REHr2pnlXHCYqFkUiSJPWkqCCed+QQA42vVGM8+vZ44RA0FkYiSZLUkxbZXnPDKxlonAkTQ75seksMTCyIRJIkqR9F1p3brwKK4kwoOHx7vghIFkQiSZLUjzZEXHPwPQSNM2UijvwOrx+CxkJIJEmSelFkOxX/D0FyJg3E8B8bFAshkSRJ6sUUUW/b8g6CxpnUKH6vvT8GGgsgkSRJ6kVCvP7gCZLiTGoMh24Z/iChWACJJElSL7IqXg9MnHlRv9sgWQCJJElSHwri5o0/4d7QqF1vbicJirmXSJIk9aEC/teNtwHFveD9R4cbWAiJJElSHwry/RTBmVfARvxZQDH3EkmSpE4EcSMQ3BuCqmNAMfcSSZKkPhRMnwKCe0l8ioWQSJIkdSKIO7i3BHAiWQQjkiRJ3aidQHFvKKhdxSJIJEmSupEr3JtWWQiJJElSH6JR+4HGvaHIth8I5l4iSZLUh4B6IMm95JFj/Q0gmHuJJElSH6LgQRfvBoIzLeAj9+U+BcHcSyRJkvoQwNl3fg1BcqYNkN8QWygWQCJJktSLCeJyijOvoD1ugIkFkEiSJPXkieetMhGcSQPTgQvb4xokCyCRJEnqxVCNB+18LJCcYe3y2FsTyQJIJEmSejJsPBdonEntcVvaDwHBQkgkSZL6kVU8ac/jKZIzJanrroyHVZEshESSJKknDeLFF+8gCM6EpO5/TntRFMWCSCRJknoy1BR/6+SzmRg4E4K680e5fxXJgkgkSZL6klX86wsewwYDX6mR6YKn1PNrIlgYiSRJUl+CYle+7P57mBj4Sgxs7H1wvrQGgmBhJJIkSb3JavE3T7zynLOZGLinRqb77otXxV6KZIEkkiRJ/clqw9fueNUF5zMxcvcFIxv7Lz31W1xajWChJJIkST3KaSMuH37jwoeyQZLcHQPFxv6vq1/noTWRLJhEkiSpT2NNPGrj9/Y/k0ZjIPjygmBgIvb/AK/jkmoMLJxEkiSpV0M1zuGX91+970FMFMFI8qUkI0Ux7XvU/lfzM21nNZIFlEiSJPUraa3qu+L39/3sxQ+g2KAxMJAkSRAkSTKQNDZg70P2/QKvj6e2RpEspBFJkqSeJdTEeXz/yWfuf2X+Tr71+hv4bMVf2HsxX1d/h6exo5gmBhbWiCRJUu+GasDufPb07OnQgQ/w9o1rhw+2jw23VrQVzssH8GAe1e4X+wYmqhEMLLARSZIkJVDTRMaF7UIuTwqYOC0oTguqTcVAsuBGJEmSdFowUtUoggCC06oAiiJIlsKIJEmSPiMIPldwWrBEEkmSJHUlkSRJUlcSSZIkdSWRJElSVxJJkiR1JZEkSVJXEkmSJHUlkSRJUlcSSZIkdSWRJElSVxJJkiR1JZEkSVJXEkmSJHUlkSRJUlcSSZIkdSWRJElSVxJJkiR1JZEkSVJXEkmSJHUlkSRJUlcSSZIkdSWRJElSVxJJkiR1JZEkSVJXEkmSJHUlkSRJUlcSSZIkdSWRJElSVxJJkiR1JZEkSVJXEkmSJHUlkSRJUlcSSZIkdSWRJElSVxJJkiR1JZEkSVJXEkmSJHUlkSRJUlcSSZIkdSWRJElSVxJJkiR1JZEkSVJXEkmSJHUlkSRJUlcSSZIkdSWRJElSVxJJkiR1JZEkSVJXEkmSJHUlkSRJUlcSSZIkdSWRJElSVxJJkiR1JZEkSVJXEkmSJHUlkSRJUlcSSZIkdSWRJElSVxJJkiR1JZEkSVJXEkmSJHUlkSRJUlcSSZIkdSWRJElSVxJJkiR1JZEkSVJXEkmSJHUlkSRJUlcSSZIkdSWRJElSVxJJkiR1JZEkSVJXEkmSJHUlkSRJUlcSSZIkdSWRJElSVxJJkiR1JZEkSVJXEkmSJHUlkSRJUlcSSZIkdSWRJElSVxJJkiR1JZEkSVJXEkmSJHUlkSRJUlcSSZIkdWVEkiQtl0YDCs1KECTBwhiRJEnLo6jITDRTjYJGsiBGJEnS8oiIdrj+aPhEmwLNyFb2x+MZqwgWwogkSVoOBTHlC7f94nVH0WxtOXDZxr/KJ1cjWQAjkiRpOVRGPPvw1UCQaHaKU4ff+YCn3/6r8a3VSObeiCRJWgZTDPz3w1eTQDGhWQqGD95xn+dt+QZ2UQRzLpEkSUshadcQJI1Cs1VsEB/9EG8MaMy9RJIkLb5imFreSFFocwQRf5YsgkSSJC2FmnIDbaaKU8UiSCRJktSVRJIkLYesRJspSBZCIkmSFl8w5TCcRRBocxRVe4tFkEiSpKUQbDyJQpsjiLWz6nIgmXsjkiRpGQyt8nsPXH34TxhpaLaCou14AXtbI5l7I5IkaTlUrbT/tv97jrwZzd64//+o51cjWAAjkiRpOWRVXNJet/+3441xvDIKzUBFVN23PZWHFxTBAhiRJEnLIqqxo66oK9DMtSIIFsKIJElaHklVoc2QLIwRSZK0TIJA+mslkiRJ6koiSZKkriSSJEnqSiJJkqSuJJIkSepKIkmSpK4kkiRJ6koiSZKkriSSJEnqSiJJkqSuJJIkSepKIkmSpK4kkiRJ6koiSZKkriSSJEnqSiJJkqSuJJIkSepKIkmSpK4kkiRJ6koiSZKkroxIkqTl0tDsBcHCGJEkScujqEg0cwUTAwtiRJIkLYsiMtr1+U6OxYRmZUe7fzyCs6qRLIQRSZK0HCqCO/mJk//+5uNoxi78qvaT8cRWQDD3RiRJ0tLIf3T4aiDRbMWhd/Kt+18Z31aNYO6NSJKkZdAyec3hqxloNDRrIxunnj9+U+ws5l8iSZKWQQvylwmCQrO3QXzkQ7wRaMy9RJIkLb5inFq7kaLQ5ggirgWKuZdIkqSlUFNOaDNVnEoWQSJJkqQzpFgEiSRJWgoRlWgzBclCSCRJ0jKYhjF2kwTaHEXVgWIRJJIkafEFNNoTaRSBZm8g1s6qbyhI5t6IJElaBkNVfM/eXz76NgaSQrMUnIIdL2BPNZK5NyJJkpZDtRVedeBZh9/AhGbs/JUtz6vnVyNYACOSJGk5JMWB9rr9v1J/mJ9CM1IBcf70tPrqYlGMSJKkZRFUZf79+PsNzVIQVCNZECOSJGl5BEwbBIFmaGokycIYkSRJy2VEs5YslESSJEldSSRJktSVRJIkSV1JJEmS1JVEkiRJXUkkSZLUlUSSJEldSSRJktSVRJIkSV1JJEmS1JVEkiRJXUkkSZLUlUSSJEldSSRJktSVRJIkSV1JJEmS1JVEkiRJXUkkSZLUlUSSJEldSSRJktSVEUmStFwaDSg0K0GQBAtjRJIkLY+iIjMLzVJR0EgWxIgkSVoeEcF19db6RE5oRmLrdIDLY3sVwUIYkSRJy6GAk/GC+i9HbkKzNex5IP+Kp9FIFsCIJElaDpXwrCMvB4JEs1NMx/7X1z/jg/8tnlaNZO6NSJKkZTDFUL96w8sZaMCEZinIN5264IeHJ7BKEcy5RJIkLYWkfoUgKArNVjERN14fbwxozL1EkiQtvmKYWn6EotDmCKI+kCyCRJIkLYWackKbqfJUsQgSSZIkdSWRJEnLISvRZgqyWASJJElafMGUQ5xNEGhzFFX7WQiJJElaCkF7MoU2R8Du3XU5kMy9EUmStAyGVvk9e37p2B8x0tBsBY3a+cK4oDWSuTciSZKWQ9XO/JUD33f4DWjmLtl++4/yg60RLIARSZK0HLIqLp5+a//r4w1xK0GhWQho9/3UU/KyKiBYACOSJGlZRDW21pPryWjGkmokC2JEkiQtj6Sq0GZIFsaIJElaJkEg/bUSSZIkdSWRJElSVxJJkiR1JZEkSVJXEkmSJHUlkSRJUlcSSZIkdSWRJElSVxJJkiR1JZEkSVJXEkmSJHUlkSRJUlcSSZIkdSWRJElSVxJJkiR1JZEkSVJXEkmSJHUlkSRJUlcSSZIkdSWRJElSV0YkSdJyaWj2gmBhjEiSpOVRVCSauYKJgQUxIkmSlkUREfVn8Sd5Y0xoNqrt4P716Di3imAhjEiSpOVQEZyIH8v/cPh2NGP3u+zOF+dTWgHB3BuRJEnLIaj43iMvBwYKzVJe916euv8V8e3VCObeiCRJWgYtk1cdeTkjExOarcbIRvuReFKsFPMvkSRJy6DBcA0BFJq9DeLo9fEGoDH3RiRJ0uIrxjbxUYpCmyOgPpBMxdxLJEnSUqiWE9pMlaeKRZBIkiSpK4kkSVoKkZVoMwXJQhiRJEmLL5iGIXaTBNocDepAsQgSSZK0FBob30KjCDR7A/mA3fWNBcncG5EkSctgqMp/eOC/Hn4LA0mhWQpOwR0v5AIaydwbkSRJy6HaTl554bMP/RYTmrEH7L7z+e2HqhEsgBFJkrQckmLP9Np9r44/jE+hWQnggtv+t3xYQbAQRiRJ0rIIqmK4gisamqUkqUayIEYkSdLyCJg2gEQzNDWSZGGMSJKk5TKiWUsWSiJJkqSuJJIkSepKIkmSpK4kkiRJ6koiSZKkriSSJEnqSiJJkqSuJJIkSepKIkmSpK4kkiRJ6koiSZKkriSSJEnqSiJJkqSuJJIkSepKIkmSpK4kkiRJ6koiSZKkriSSJEnqSiJJkqSuJJIkSepKIkmSpK4kkiRJ6koiSZKkriSSJEnqSiJJkqSuJJIkSepKIkmSpK4kkiRJ6koiSZKkriSSJEnqSiJJkqSuJJIkSepKIkmSpK4kkiRJ6koiSZKkriSSJEnqSiJJkqSuJJIkSepKIkmSpK4kkiRJ6koiSZKkriSSJEnqSiJJkqSuJJIkSepKIkmSpK4kkiRJ6koiSZKkriSSJEnqSiJJkqSuJJIkSepKIkmSpK4kkiRJ6koiSZKkriSSJEnqSiJJkqSuJJIkSepKIkmSpK4kkiRJ6koiSZKkriSSJEnqSiJJkqSuJJIkSepKIkmSpK4kkiRJ6koiSZKkriSSJEnqSiJJkqSuJJIkSepKIkmSpK4kkiRJ6koiSZKkriSSJEnqSiJJkqSuJJIkSepKIkmSpK4kkiRJ6koiSZKkriSSJEnqSiJJkqSuJJIkSepKIkmSpK4kkiRJ6koiSZKkriSSJEnqSiJJkqSuJJIkSepKIkmSpK4kkiRJ6koiSZKkriSSJEnqSiJJkqSuJJIkSepKIkmSpK4kkiRJ6koiSZKkriSSJEnqSiJJkqSuJJIkSepKIkmSpK4kkiRJ6koiSZKkriSSJEnqSiJJkqSuJJIkSepKIkmSpK4kkiRJ6koiSZKkriSSJEnqSiJJkqSuJJIkSepKIkmSpK4kkiRJ6koiSZKkroxIkiT1qyhmJwjmwIgkSVKPiokkI5iRAtggGNhkI5IkSX0piojIsVG3TsfjZJ3i3lUMsY2dsTaMjYJGEGyakbssOTkyEhSSJG2epNWAdE8VFRm097dfz7fnweGm8fbpTu5lJwd2DrtP7uey+CaeQBZMDGySkbss6vDNSJI0B+KTSPdMi4zgfw7/7o7X33ycWbqFw7yb3+b/2ntpPpe/x2o1gmATjNw1AYz7/lncTiBJ0mYKpvYwpHtiioGj8S8O/yIFJElRQHHvCyCBjaPv4R/t+/n48eGJG8WmGLnLamv8m0KSJGlBtRh48/A9hz5AkBSNxuwU0IAgyBvexrdc+GNxVTWCYMZG7oZqSJI0D4JAunumGPjdbU+/7uNsYYPGZimKxkA79MK9n8yfag0IZmrk7kgkSZIWUYuBP84rr/s4A6fYfBPBePTf7d+dV7WJgZlKJEmSll1B3LLlHx6+hZGJ+VBM5JEfq9+IgcZMJZIkScuuIvnJ69/NyAbzowhi+N+5maAxQ4kkSdJyqwiu3fJzBBvMl4k89P78vyOYqUSSJGm5tYj4mYMnSOZPI7b+XDtOUsxMVkOSpGXWUN9aDHXz8D8I5lHBh44Nrw1ozEzGbUiStKwK4jbUt4J4x4c/SNCYRwPwm8ksZX0CKCRJWlL1CSBQvyKJd1IkxTwq4NrpdgYaM5JxXUAhSdIyqiSuAxL1KxpcCxTzqWDrsbohmJ2sa4FCkqRlFFAfAgL1K4rpI0AxnwruOB7HgWJGMt6aSJK0lIrh1MfanwGFelZxO3Pt6B1xJzOU+ccbH4uBhiRJy2YayPft+SBBQ30r5ltlMUN55L3jW7JoSJK0bLJR/+87TjJQSPpLSeOVLRiQJGm5FFEn4hpgQtJnSRhfUR8AGpIkLZM2RP7S0YMEhaTPkuTBE/XiDIpCkqRlUdA+3n6GIJH0OZIijv1S/V4MTEiStCymYZh+5uh7SCYkfY6kCKbhn/LJGCkkSVoGLcbpD6eXEDQkfZ4EGsOhd9YPRWOiIUnSopvIumXLc266laCQ9HmS0yaGo1dzVY4EhSRJi6wxcGL8jg+/i4GGpC+Q/LmJPPLi9uIMYEKSpMVUTJFxK9996I0MTEj6IpLPKPLoC3hubMTARCFJ0qJp1DBwML7l6K8yMCHpi0o+oyiGIz+bT+aPYyBoNApJkhZBMdEiM+vV+fgjf8DAhKQvIfkrxcRw+PVb/3a+gI8NGQls0CgkSZpXxcQpIoZI3hPPOPL0w4cYmJD0JY18rok8eIIXn/eL4z/hqXFZjo3i0wppeQQ9K6RlEUDEkEM7yTviF9o1h28jgAlJf42Rz9cI4qaj/Ivzf3LL5Xxte2w9OM8GAknLIZCWSB3Ld7Y3b33zwTdx2sCEpC9j5AsVRZAf+RS/xq9dtu34ynSfXI+tBNJSKNq/ja+qRtKXKYa6un5h2BYNaRkUt2+5MT/+weM0IAiKCUlf1sgXV0wEA+29d3IntyAtlX0NCDqUHzny+0jLZwAaDUl3yciXVmwAwWmBtDTuu+3O85NO7SUJCmlZFKdNSLobRr6c4rRCWg5BnTXevLvoUADn0pAkdS6RunPTWhuBoENtnUSS1LlE6kvAsJYjPQpg7ZEjkqTOJVJ/1hnoUtHWbxyBQJLUsUTqSwDnAkV/AmL7jrOQJHUukfpzXtCryNvWkSR1LpH6EsAaUPRp3LYGBJKkjiVSf9aAok9xch1JUucSqT9rCUWPKsg1IJAkdSyR+lLA2fSqINeRJHUukXoSTCQrDYIeFbAGBJKkjiVSZ87b1VboVSXTOpKkziVSTwJWVmsVCDoVu5EkdS6ROrOxUit0q9FWgIlAktStROpJwJaVXC0IehQQq5dsp5AkdSyROnPHKrvoWK3ctgoEkqRuJVJPAsaVASaCHgXU6vYVJEldS6TOTLsLGp0qamVjFQgkSd1KpJ4UxFpA0KeAXKkVJEldS6SeFLBGz1qMtQoEkqRuJVJPClhrEPQpmJJcRZLUtRGpJwWs07MopjWgkCR1K5F6swYE3QrGNaCQJHUrkfoytnV6FjCtI0nqWiL1I+CygfWCoFuNWAMakqRuJVJXPrKVc+hZAOtIkrqWSF3Zfk6NQNCxdi6JJKljidSPANZjpGcBtf7IEUlSxxKpL+sMdK2ItRtHIJAkdSqR+hHAGt2rndMqkqSOJVJf1gKKfgVE7lgHAklSpxKpHwGsA0XfxjvXkSR1LJH6sp5Q9C1YAwJJUqcSqR8BtQYUPasg15AkdSyR+tEgz6Z3BawDgSSpUyNSL4KJaLuAoGcFrCFJ6lgideRhK22V3lWQ60AgSepUIvUi4OhKrQBB52o3UEiSOpVIHdm5kqv0LopaBSYCSVKXEqkXAdNqrRYEnZtWL9lOIUnqVCJ1ZFyJnRR9C4iVEytAIEnqUiL1IqCtRNAIOlcr0yqSpG4lUkem3QlF36JgZdsKEEiSupRIvSiINQTU6rSKJKlbidSLAtaBoG9BG8ZxBQgkSV1KpF4UsNYQLZhWkSR1K5F6UcA6EAjWgEKS1KVE6ska+rRpDUlStxKpH0NbA4LeRTGsAw1JUpcSqRuXjbWOPq2tIUnqViL1IWDYyjmFCGAdKCRJXUqkbnx8d21Fn9bOJZGkbhTzrjFLidSHANYzgaB3AbX+uAFJ6kVsGZhrjxtaMkOJ1I1aZ0RA0dYPjkAgSV24c5W59u4dtYMZSqQ+BMQaUAiInTtXkaQ+VLBlHxDMp4Bt5+a5QDAjidSPtUBAQOYnz0OS+tBgeggQzKeA7fvZU0UwI4nUhwDWgUKnDdvWgECSulAPv2wbE8F8io2H5hYmghlJpH6sAYVOy401JKkPWRUP/cRDgGQeTVS7oiCZmUTqQwBrCYWgAtaAQJKWXzANu+JKimL+JBx4BI8rSGYmkfrQoO1Gf66ANSSpF8NE+77z9lIk8yaJ9k8ZmZihROpBMBGx0iAQFLAOBJLUg6DluVv+JUUSzJOBjb2P4+nVSGYokTpx/q5aQX8hYR1J6ke0iu/bdwUbDMyPZDprd72UHUAwQ4nUg4DVlbYKBIKC2I0k9SOg4KV7v5oNRubDQHvE1tWfHy6tiWSmEqkTJ1drBf2FxrQKTASS1IegcZ94xf5HssFAsrmCgen+24+9jKe3iYEZS6QeBLTVXC0IBAGxetk2CknqR9bExfXaC69kojGSbI5goJgOPPD21+Z3V2Ng5kakXuxiF/pLbeUTq9xJUEhSL4Zqcf70ir3/YcdPfeg6TguSWSoaxXTJ9hN/b3pR7q+JgU0wIvUgIFcramJAEBAr21a5GUnqS1Yj85/c8W37rqn/cvQ9FBMzdv9zTlz5qe/Or4WaGNgUI1In6qygGgMCilo9sQsIJKkvCW2KffwIz93/bt4cf8qRaNz7gprOjge3x9zxmDgvqEYwsElGpB4UtPWEQKcFxOqwiiT1aahGsb0exaOCojEbCQQFRWNgE41IPSiIdfRXWoy1CgSS1KMEqoqaimBGpiIIgmBgU41IPSiItQaBTgumzFhFknoWBJ0akXqxhj5L0c4FCklSdxKpB/X/twd/oX7edwHH35/P86Rpk3OyLL/flqyuLVu7TOzWWSbOiSB4JQMRRL1xbPjnQgcDBf/CbnQXMgRvdjFBvXWsU6coDEGRBrVg27Fp2zBatvac9A/ttnZJtyY55/l+JHO2OUk61+Sc9Mfzfb9eBEsg0MuGBVBIkrqTSH3I7QV6RQTTEklSlxJp/gLuHHMJBPquRiyAQpLUnUTqwnP7piOFXhbAAigkSd1JpC7sf2PsAwK9YkkiSepQIs1fAMsY0CsCasGIJKlDidSHBQO6SFHLtw1AIEnqTCLNXwBLAu1QB86uI0nqUCL1YRFQ6P8ExHBwgSSpQ4k0fwHTEih0sfHsEggkSZ1JpC4MR4BCFwsWSJI6lEjzFzC9KaHQKypgCQSSpM4k0vw1GA6hnQo4giSpQyPS3AWNaGtAoJ2WQCBJ6kwizV/92IFaRzu1hCUQSJI6k0hzF/DYobYOBNohjgCFJKkzidSBg2t5EO0UjWkNaASSpK4k0twFtLU6VBBoh1q/cz8NSVJnEqkDtRYHKHSxgFh7YR0IJEldSaS5C2jrkTQC7VDrbQ1JUncSqQPDoYSGLhYFB/evAYEkqSuJNHcFbVkQ6FLr0zqSpO6MSHNXkAt0qaByX60BgSSpK4k0dwUsGwTaaUraOpKk7iTS3BWwQFeUR4BCktSVROrBAgh0mVoiSepOIs3f0BboctEYFkBDktSVRJq9HxprCQS6TFsgSepOIs1bwI376kihywSwAApJUlcSafYeP1w3oCtqSxJJUmcSad4CDi5zAALtFFDLnxyQJHUmkeZvyYCuoKjF4yMQSJI6MqL5C3qWFAsCXVEc3FrjLEGPCknq1IjmKQmKxgVFz7aBw0EVgXYKYBgP8xxFr4IEGoUkdWRE85NA43+N781HDywOTEmnWvKt6Y6AItBlYty+8+jpffuz0ZWt8/niHVv3blNMXDAyUUhSJwLNS1IUvP327bvb++Kudry9IUYGeta4kRG9ijoX2wS9qZriLE8OD8WDdT9f3Pw2kDSka5e0Y0fjRB6vRiKtpEBzkjS47QPTr07vz7fwHYWkKwsgmSruj3+IP9v8GklDulZJO3Y0TuTxaiTSSgo0H0m7/S3n/7g+FNGoCQgCQaDvpehVAY0xSNoTw+9sfJakIV2bpB07GifyeDUSaSUFmougbv6R+Kt4R4NtkkTS96NoEEMQn9j8fQIopKuXtGNH40Qer0YiraRE85DUbW+NT/OOtgWMJJK+P8HAUK1N8Xtv/QOKQJJmLtFs1G/FHbXFPiS9dklut/rYzW+jEUjSrCWah8YN089VMSLp6gTBgfFngESSZi3RHAS8Z3+9uQJJV69RdTMQSNKsJZqJ81FIukZBIEmzl0iSJKkriSRJkrqSSJIkqSuJJEmSupJIkiSpK4kkSZK6kkiSJKkriSRJkrqSSJIkqSuJJEmSupJIkiSpK4kkSZK6kkiSJKkriWYiCCRJkv5/iWbiGVog6RpVIEmzl2gmFueH0xSSrl4AzyNJs5doDop49Gz8cwQNSVengJafBxqSNGuJ5iFg+BNejIFtJL12RRuy/nLjiwQNSZq1RPPQyCe+NPxynY2RbQpJr8UE41D/tPXbJJI0eyOai8aw8ddvfmb8ZP5wUdAogkDSqykKSGIY2vn2iVN/yIQkdWBE8zGRz/7b7T/10i/VR3hnJkABNCRdKggiSCbi2/U3w6c27gOShiTNXqB5SRq894an78pf5H11SzsWNwWSLlXUdrzAk/mV+Mdzn3/2aSBpSNcuaceOxok8Xo1EWkkjmpdGkA+e5wEegFtvqWMciBuHQNIObavO7Xv+xY3nznBBkExIUidGNDfFRBAk08Ymm0j6XgagUUxIUjdGNEdF0QiSAAJJlyugMSFJ3RnRfBWFJOm6G1pNSKtrO5EkSbun4KVz7RxQSCupziSSJGlXvfulOIu0mgriTCJJknZPMdy7lc8nFNLqqaBOJZIkaTcFxONAIK2mLyeSJGk3FfDlBom0eloSjySSJGk3FeS9TATSqimGaSseTCRJ0m5qsHEyTgUU0mppEfWV8WQiSZJ2V3Iu/j5hQlotlTXe98QziSRJ2l0B8blpYqCQVskwxfQZSCRJ0u5qxPb93B/QkFZHg3jkjf8KiSRJ2l1FPvWt4VMEibQ6KqL+9OFzDIkkSdptjTj0mXoogoa0GlokD49/R1CJJEnabUU+fG783SiKQloJEfGxja8TtAFJkrQX8puPrr897qaRSK+3KQY+++THSRoEkiRpLwTcemT73+Od1Uik11OL5NH6iaeeI2iQSJKkvVDExteHX+EMQUN6/TSCl/I3nnqWoAEkkiRpbzRy8z/iw1EkDen10ciI+vXNf2Gg8R0DkiRprxTj6UcOn4qfZh/bJNL1NkXGFL/55J8zMvFdA5Ikae808vQXDv03H4ibmEik62mKoc6Ov7b5FwxMvGxAkiTtpWI4fXJx3/T+4U1VNBLpemgQyWPxoVOfY2DiIgOSJGlvFcMLX12/J2+Ld5FMQCDtpcYUQ0b97U2/8MSXGJjYIZAkSXsvafADP9v+aLirKJiAJJB2U9GAIYD20PjxzXuApHGJQJIkXQ9JUT/4hjM/z0fj3ZVQsE0CQSBdi6KAYgggipPxyfGer36DIGhcJpAkSddL0oDx1h+dPlg/zruGoQGFdK2CC6rxcJzIT2/+J1vAwMQVBZIk6fpJggng5kW8Z7o77uR2bonDHCaQrkZxmuc5VY9xMh9o//X017hgoGi8iv8BpY2oCTnvIHEAAAAASUVORK5CYII=;" vertex="1" parent="1">
          <mxGeometry x="100" y="590" width="109.54" height="65.47" as="geometry" />
        </mxCell>
        <mxCell id="L26KNRqS2CPZ2x79atgm-57" style="edgeStyle=orthogonalEdgeStyle;rounded=0;orthogonalLoop=1;jettySize=auto;html=1;entryX=-0.005;entryY=0.388;entryDx=0;entryDy=0;entryPerimeter=0;" edge="1" parent="1" source="L26KNRqS2CPZ2x79atgm-48" target="L26KNRqS2CPZ2x79atgm-49">
          <mxGeometry relative="1" as="geometry" />
        </mxCell>
        <mxCell id="L26KNRqS2CPZ2x79atgm-48" value="" style="shape=image;verticalLabelPosition=bottom;labelBackgroundColor=default;verticalAlign=top;aspect=fixed;imageAspect=0;image=data:image/png,iVBORw0KGgoAAAANSUhEUgAAAu4AAAXsCAYAAAB5cgxPAAAAGXRFWHRTb2Z0d2FyZQBBZG9iZSBJbWFnZVJlYWR5ccllPAAAAyhpVFh0WE1MOmNvbS5hZG9iZS54bXAAAAAAADw/eHBhY2tldCBiZWdpbj0i77u/IiBpZD0iVzVNME1wQ2VoaUh6cmVTek5UY3prYzlkIj8+IDx4OnhtcG1ldGEgeG1sbnM6eD0iYWRvYmU6bnM6bWV0YS8iIHg6eG1wdGs9IkFkb2JlIFhNUCBDb3JlIDUuNi1jMTMyIDc5LjE1OTI4NCwgMjAxNi8wNC8xOS0xMzoxMzo0MCAgICAgICAgIj4gPHJkZjpSREYgeG1sbnM6cmRmPSJodHRwOi8vd3d3LnczLm9yZy8xOTk5LzAyLzIyLXJkZi1zeW50YXgtbnMjIj4gPHJkZjpEZXNjcmlwdGlvbiByZGY6YWJvdXQ9IiIgeG1sbnM6eG1wTU09Imh0dHA6Ly9ucy5hZG9iZS5jb20veGFwLzEuMC9tbS8iIHhtbG5zOnN0UmVmPSJodHRwOi8vbnMuYWRvYmUuY29tL3hhcC8xLjAvc1R5cGUvUmVzb3VyY2VSZWYjIiB4bWxuczp4bXA9Imh0dHA6Ly9ucy5hZG9iZS5jb20veGFwLzEuMC8iIHhtcE1NOkRvY3VtZW50SUQ9InhtcC5kaWQ6MTUzMEZGMzFGQTBFMTFFOEJGODFGNTQyNTdBQkQ4Q0MiIHhtcE1NOkluc3RhbmNlSUQ9InhtcC5paWQ6MTUzMEZGMzBGQTBFMTFFOEJGODFGNTQyNTdBQkQ4Q0MiIHhtcDpDcmVhdG9yVG9vbD0iQWRvYmUgUGhvdG9zaG9wIENDIDIwMTUuNSAoV2luZG93cykiPiA8eG1wTU06RGVyaXZlZEZyb20gc3RSZWY6aW5zdGFuY2VJRD0ieG1wLmlpZDpBOUMzOEQyQ0Y3N0UxMUU4QUI4MTgyQzcxRTA0MzczRiIgc3RSZWY6ZG9jdW1lbnRJRD0ieG1wLmRpZDpBOUMzOEQyREY3N0UxMUU4QUI4MTgyQzcxRTA0MzczRiIvPiA8L3JkZjpEZXNjcmlwdGlvbj4gPC9yZGY6UkRGPiA8L3g6eG1wbWV0YT4gPD94cGFja2V0IGVuZD0iciI/PpSKpZ0AAH/mSURBVHja7N0JnKRVfTf6U9XrrAwDM8PAsK8CiiLKorIISTSKKKJ5g4lJiEtiYpJ7c3NjYoJRQc1iYu57o9HoG5dc1PfN674GN1QEQWQH2Ydt2IZhYBhm6+665/90naGm6e7p7umleub75fPQXV3LVD9ddc6v/s8556k1Go0EAAC0t7pdAAAAgjsAACC4AwCA4A4AAAjuAACA4A4AAII7AAAguAMAAII7AAAI7gAAgOAOAACCOwAAILgDAACCOwAACO4AAIDgDgAACO4AACC4AwAAgjsAACC4AwCA4A4AAAjuAAAguAMAAII7AAAguAMAgOAOAAAI7gAAgOAOAACCOwAAILgDAIDgDgAACO4AAIDgDgAAgjsAACC4AwAAgjsAAAjuAACA4A4AAAjuAAAguAMAAII7AAAI7gAAgOAOAAAI7gAAILgDAACCOwAAILgDAIDgDgAACO4AACC4AwAAgjsAACC4AwCA4A4AAAjuAACA4A4AAII7AAAguAMAAII7AAAI7gAAgOAOAACCOwAAILgDAACCOwAACO4AAIDgDgAACO4AACC4AwAAgjsAAAjuAACA4A4AAAjuAAAguAMAAII7AAAguAMAgOAOAAAI7gAAgOAOAACCOwAAILgDAIDgDgAACO4AAIDgDgAAgjsAACC4AwAAgjsAAAjuAACA4A4AAII7AAAguAMAAII7AAAI7gAAgOAOAAAI7gAAILgDAACCOwAAILgDAIDgDgAACO4AACC4AwAAgjsAACC4AwCA4A4AAAjuAACA4A4AAII7AAAguAMAgOAOAAAI7gAAgOAOAACCOwAAILgDAADb02kXMJKD9t13h+5fq9W2fh0YGEgdHR2pXq+nvr6+6mfl+rguvo/rGo1GtVWfKofctlxXHq/cvvXfa71cxM86Owdf6v1xv8HbzcsXl+Wvy/P99s3b8nx5z/x1Sd72yDfYPT/gwvx9b/75nLx1N98vHfm6eqP652pj3hUjfL+966qn3/x5Y+htRvvXGyP/I+WPUr4f7t8f7TnOtMaQ7xvDFCEaI9x2Av9aYyy7d3v7abg/R2OM+7Yxjn9nuDfhWO9bm8S/yzN/1mjs6GNNxe8+1vdibYKvzZF+n8Z2f+fh9te2v09tEtqb8f4uz/w9Wp5nY9vbDURzm7e+vG3O7ezG3F5uyO32hnx5bd4ezd8/HF/zdQ/n7d58/X3564P5Z4+Utry17S/tbWnjh7a/re1/a99Sz/1OrXm/6jZlJ0R/MkrfUfqlba5ruc+OuvPee4UMBHdoDeulTc7fH5ob4cNzA3xkDu1H5MB/UP7+4HqE9Hq9e+t9ckM90PLBYesHhWanubWjiA8ZpSMdSyCpTX/ure2Ef9Pa0ORQ9mujMYX/aM2byX60v8bwPGtD297WkJu/H2gJ4nG/KKa0hu+4X26nH8tf78/b7fn72/LXG/LXm/LVv8jbk6klgIPgDrM8qDc7jLl5OzY37CfkUH5CR0fHMR31+iFDK/yx9UVFJarxHR2ps6sr9XR3p56enmrrji1f7so/j60jdzJxxCA/VlXpL51PbWxP7ukObKT7DAmfE46iQx+/fAgZQ4c7K/7OwzznxlR+aJntAWEqP9S0+35sl999svZXO/4+rcF7YGCbkN7f379127JlS7Vt3ry52jZt2pQ2bdxYfR8/jyOrzQr37rmd3b3e0XF0vXlkNR43P8Yj+TGvy5evyO385Xm7Mm8PtLbrILjD7AnrB+Xt9NzgvzRvL8rBet8I43GINK6PTiEa/1q+3Nvbm+bNm5cW7rZb2i1v5ev8+fOrn8+ZOzfNybeJsN7ZDOtxv3pLB7H16/YCSWvlfgzBsjGRTrr1uYzhcbeOhWl+8Jg1wXXoB5u4PPSQuQ6cKfggMZGxJTPywWI6Xv9jfc7NNq+00QM5vEeYr0J63iK4b9iwIT311FPpySefTE888UR6fO3atPbxx9MT+esT69ZV10fbHYWSrp6eJR31+un5sU6vPgz09T3ZPzBwZQ7y38mP+1+1RuNn+YZe1wju0I5hPQ0eUt0vh+pX5u3VOWCfmr92Rdiu5ca7vxnUo8Gfv2BBWrx4cVqyZElasnRp2nPPPdPiPfZIiyK0L1yY5uXr586ZU1XXY6sO3+b7VZX1UlVvrU63jpEcS3CPjmtIFbwxFR35GD5AbBP042fNjq6WUpoNtcnW51lV91p/l5YjIA1vE5jR92etJbgPLbQMlCGJUYnPbXWE+Y0bN1Yhfl0O7BHgH3300bR69er08EMPpYfytvqRR9LjOdRvzIG/CvJz5szP7/fTclt/Wg73F+btmvy438zbl/I/dcXWo6KwM77XGg3dHMNrp8mpzdvV83WvzY/z6zlgvyIH7e4I61VlvfkYUTXfI4fzvfbaKy3fe++09z77pH3y16X58u6LFlUV91BVfHJHUVV81q9P6/MWVZ64HJ1IXI6v5RBuY0eDNTPUwtX83WCG33/Rlkf7H8MQ58ZRzTlzqrZ4t4UL0/zcZkeBJY56xve9+bquzs5qIYFokyO8r7r//nTfffele+65p/r+wQcfTE/kIF8mn0b7Xw3FGRx2c3n+UHBRftd/LvcXj8QwR5NTEdwR3KcpuEdjnO1Zr9XOy/c/r7un5/BSHa+Gr+THjAZ/6dKlaZ8c0vc/4IB08CGHpP3337+qqvf191fVm2jo788NfmyrHnggPZg7g4cffjitydc9/sQTVVCPQ7Mx5hKAqRXtewT42GK4YhRW4sjo0mXL0t577532ze35ihUrqnY9CjELcriPYkq04bffdlu6LW93r1xZBfq1a9cOHmnNj1uG4uS2fE3uay7K/cm/5f7luq0hXHBHcEdwn/zg3nxdLs1f355D+tt6enoWRwMfFZuqwZ87txr6sm9+jocddlg68qijqsY+Hjsa8ltuvTX94he/SLfmxv3OO++sfrZmzZoRO5AYIlNvTjxtfe7eHzunqPbF33ygOaFupKXm2uXycOFitPsMXa1jWp5jGaq0netHeo6lTWiGLkMddsbA0fIajq9RVY/x79FuDyfmG8WR0wMPOCAdeuih6cgjj0zPOuKI6vvdd9+9Ght/8403putvuKEK8vfndv7JdetSf4ynz6+hqhiTw/6mzZu/kN/r/5j//UtjKKTgjuCO4D5Jwb254suCfPn/6Orq+uPccC+eE4dPmxNG49Dq8hUr0uGHH56OPfbYdEBu0GNc5A254b7q5z9PV111Vbo5B/a77757m+cS9y1j2EunUVaXaa3wl+dRDu2Wy61fW383Zo+ynn8cqg8xLKoExHh9xfURGqvAkD8kxuWo8JWgH+Jy/Dwux+shLsdrKF5b8XqJ+8fkufiAGf9WXB+XywpFcX28/odeLq/PssrG0MvxWPGYZXWO+Lfjcjx23KZUL+O5bGqOA47ry+XW3zGeU7kcItyU3zHuF5fL7xi3K79z+dDc+jvG7xz/fuvvNNLvUC6X1UXidyqXY4vHKn+beN7leTE732vl71ja2tY2d2BwpZhtjrDGa630EeW+Zfx7q6jOR7Hm2Oc9L73gBS9ILzjuuOoIa4T4n+c+4Oe5D7j99tvTmtWrt77W4r3ePKJ6Ud/AwPs6arUbtxmTL7gjuCO4jz+4Nxv8384d+rtzCNmvWuWlWWXfbdGiqnF+3vOfXwX2eKyrr7kmXXLJJenSn/wk3XjTTWljS0cf9y3rBA80VzUoHUXpIEpwiEBRloEsW1xfVpYR1ncOJRDc1jwKE0OsXvjCF1Yd/s9+9rPqb37yySdXnfxPf/rT6vJLXvKSqvO/9NJLq/u+6EUvql4XP/zhD6vXbQSHOIQft4/hVsccc0x1uP+yyy6rLj/3uc+tJkRHoIgjPs961rOqw/9xOYZwRQUxLscHz1WrVqWDDjqoqibG5RgScMghh1Q/iyASzzluG/eJsb5xRCke+3k5wMSwr2uvvbb6nU444YTqsa+++urquZXf8corr6xez/E7RZgpv9OLX/zi6ufldzr++OOr909cjvdqXI7Hjd8p9k38e/Hvxofk8jvFka/rr78+PfDAA+nggw+unveNN95YHemKy7HdeuutaeXKldXQh6OOOqr6feL3it/piCOOqH7fm2++uXr/lX+jfMhgdof4EtrL0o9bnh7OsvVr+YBXlpAs79mhYT5eE80hlJX99tsvnXTSSemlp51WvbZjWM1t+bX2w9w3xPvokfzeqP6d5tylpyLAb9r04fxY5+fX1qPPCOeCO4I7gvvowb3ZSD8vX/+POaifOq+5NGNU/GK5xgguL84N8pE5IMT49O9897vpW9/+dro8h6X+5iHWEvBLR1EqOqUDiIAe1bwIMrGaTGzx+B3NJSNbq0DRKZRKYFwuy0K2VuC9b2afeH1E2I0w+YY3vCHtscce1Qe/mB8RYTlelxFG43YRwOPvH4E+Quuzn/3s6m8e4Th+ftxxx1Wvg3i8CK8R4ON+EUzjaE8Ez1jNKK6PMBu3j9d0/NvxwaEE/AiucZ/4MLoofziN28Z9IgzH0K+4Lm4T/348z1hhI8JIBN24Psb2xnM+8MADqy2CdTzn+Lcj4EdQicvLly+vfscIMOV3Ovroo6vXfATuCE/ld4qAHSt6xHOK90wE8FjRI37HeF+UoWdx+3ic8js95znPqcJ2PMe4T1RF48N2BPKb8gfrCOvLli2r9tc1+UN3vK8j0MftY7/G842fff3rX68un3jiidU+aw1ptHGYGDI0qjFkLfd4rZWjRKEURVqDebwO4zVcLQ+ZX3NlsYC4T6150qbWIY3x8zjiWsR74IzTT09nvepV1QfWeK199+KL05X5NR+v6S3Nx48lKPPXh/L74V35bh8t/YDgzmxgOUhmVHOM8TtziH7P/Hnz6vNzoI6wEB12VFJOe+lL09E5tEQl7sL3vz99/RvfqIJACeu9OYi3jotvHUoQoaJaBjJv8X00ziWMx79bDtfHz8swmjKcoFTs43blEH+1gk3rCZianVVtmDXeab9QEYfYI5RGEIgOPj68/eQnP6mGW73lLW+pAug//dM/VR/u3v72t1ch+p//+Z+r19l5551XvS4+9KEPVa+f3/qt36oqe5/5zGeqic/nnHNOFcb/+I//uArCr3zlK9Opp56avvjFL1ah9Ywzzki/8iu/ks4///x0+eWXVxXCs846q7p9XI4Q/OpXvzp94AMfqCrbEXrPPvvsrbePqvRb3/rW9JGPfKS6HL9LXP7Sl75UVfvjOb3tbW+rvo/nHIH4T/7kT6rLcfuoiL/5zW9O9+awEL9DvB/e9KY3Ve+HuByv87gcH2Y++clPViHn3HPPrYL0Jz7xiaqC//rXv776APEHf/AH1e8Uv88v/dIvpXe+853VvxGV/te85jXpggsuqC5H1T0uX3jhhdXlGN4Wlz/2sY9Vl+PDRfzOH/7wh6vnGR9E4jEiuMewhgj98eEiQhzTa+gyjkO/bwx3XoUh7XrZSiV9oLlEb3yYrE6Alz8ol2FWZfhVGaIV77l4zcft4zaPPfZYeuSRR6qv8dqoloSME+PltjveC/H+jvvfdddd6d8+/vH0iX//93T6aadVr+Gz8vso+pFv5NfVNVdfXa1UEyvX5PC+7Ml16/41P95Z+b5/mB/jTu03s6I/UzlkJFNZcY+Jao2BgUM6Ozo+kYP6yQtiWbBYUz2H9lhVIIYsRCcek0w/+alPpS9/+cvVGr6hNNTltRsNdhmbHGEgDsXH1wjb/S0Tn8ok1Kj6RMdQPiDE157mmVJLZX3I8J1ndFitgX3oRnuKUPqN/MHv85//fPV3isBeKncRDiMwlHHkUZWL10ipCsb1ERTK2Peo2MV947VTxsbH/eLDQLx24vryWi2H9+M2MaEubh/hJW4f14fNzYl0UXUPZYWjcv94DcdjxIeK8pqP5xgBvLwX4t+M68s487gc18fleIyozsfrPX7HuH1cLiGp7IMShOK5xuX4/Vt/p/h3W59jbLFfS7U0bhO/YzxOWakp7h/PIX7feMxy/VPN5VjjcoifRfU9wlk8z/jQUlYSYfqD+3AhvfXnowX41snGrcWORnNpyNZwH6/V+BuX11MZjx5beV+V9jseI34eH5Zji/uVs1u39jflBE8hjhS9OX8o/dWXv7xaSjL6kuoDfL4+Xq/r8msyf92Qn8cf5ef38dbnp+KO4I7gXpZ4rNVe19Pd/YkFIXfs0UFHcI8JR7+SG9hYovF/fOIT6f+76KIqsEeojs68dRWQMj6yVOcjQMTtyiHaEgYinESAiUASQSvCSGt1PkJRf8sY+KGd03C/09Dw3nqZ9gwi8VqIkPrjH/+4GqoRP4vQWEJCCfclOMTfMkJqvM4ihIa4fbxOShW4fIiMEBwipMZrfKTLJUhHOA3x+HH/cjkeL25fLpdQWy7HazlewzGMIJ5HPFa8dyKAxPOM3zE+tMbzi/dGNaE7P2YJ0fFvxfUlZJcPu/FY8ZghjlDFe2K05xjvoajCh/j3431XLpdhbuVyWfIv7l8qqrEfYhhDvJ/Lh+h4zvF+jL/B6aefXg3viZ/VnRFzRt4vI30/WrV9uHZzaJvZOtm/zCWK10+8LmIrBZTy4TNeA080l+yN92Y5alo+PMYR2JjjEf92vJbKUMZShS9DaV6YA/yf/umfVvNUrrj88vTNb36zWg64OodHfu2vGzyPx7/n1+Rb8323tH74ENwR3Nllg3tU2nMoeO/8efP+amGMN8+hIAL7sqVL0yvPPLNag/1zn/98+qcPfajq6KNRj05+aGCPLcbTRnU9gkJprMsKHa1BPX7eOvGpPNZwHdBooX2k3611aTsho32VYU/xeomQGqEgXi9lqFSpnMffMC6XamD8beNyqeSF6jwCzcP45XEjzMb15XK5vqxmE1tcLoG7VMbLa3a4y+XDZdy3XC7POS6XORllsnV5rZfry6oy5Xcc+juFcu6CcjmqmGUflPdbPG75ncr7qDzHMsyh7IMyBKJM+i5DIYb+DkMvl+EP8b6NfzvCmg/DMxfcW48ujtYuDg3uw/29hhta2FqNb13Jq2zlCFc5KlqOGlXn38gf+kqIL6+f6C9iuFtcjvu1/ptxffmgGkPQ/iwH+Fih7D//8z+rYV9P5fAeZ2xtfkC4Or9+X5tvelfrkQLBHcGdXS64h86Ojv81Z968c6Jzji0C9nOOOSa9+jWvSXetXJnOf9e7qsl2pdLX2nmU1QiiChlVwWjQo3Evk13j9qU6WA65lka9dSvDZ0qIH+6w8NC1qMf6uzILGr1maB3aKQ+tsJXD+qNdP9Ja5OO5fmgwGu5EZNtbz320ULUjk6lH+h22d3mk32ksv0N5z9KegX4itxtuDtDQAD90pa/4Gh/8SiW+HJmJo1jx86iQxzyUGPteVqaJD53x8xhyFa+jsmBBeQ2Wya/R77zzL/6imrdx5RVXpG9/+9tV1f3x5rbuiScez491Vn5ul2zz2hXcEdzZFYJ7s9q5IDfK31iwYMGLY2nHCO1xiD0mt530kpekT3/60+nC972vCtJleMHQ1QnKGfYWNiewtg4ViI4+qjHRaJexkWUoTesSY17vALNDqbyXAF+GXZUAH0ddo0+IMB5Ds8rY9ugHonoefUI54tX6mGXYVvQ/F7znPdXqZDH35cFVq9LaWNEmXx/3z4/767kv+lzLJxLBHcGdnT+45zC+LDe+P1iwcOERi5qhParmr3v969OyvfZKf/4Xf5EuvvjiqkEtE+FaKzfl5DJxXVTZW8+q+NjTDawqHcAupEwQjz4llhqNfqKcMCwKNWWMfFmJprXyH2dtjYmpe+6xR/rnD32oml/1uc99Lt1y883VyjNrc98SwT/f9/fzXf61uq/gjuDOzh7ccwhfnkP75Tl077coh/UY175s+fL0xje+Ma3JjWIsaXf/qlXPqLKX+5cJrWXsbJlUWibSAUARQT6GwpQJ6bGVYZZlWGVr8C+Trt/5l3+Zzvud30lf/uIX0xVXXpmezOE9xtLH2PennnrqD/JNPtx6tlXBnZliHXemTA7t86LSXoX2RYvSgtyY7rNiRTrvd383XX3ttVVo7+vvr6rvZax5a2iPy1EpKcvBtVbiAWCossxoaz9SnfOjt/cZxaHoU6L/iZVlYqhmnJE4liGdk8P/D77//cGQPjhX41+e2rDhqfzNJ5P5TAju7KShPSYX/WDBggWHVau7zJuX9tl33/SWHNYv/s530p/+2Z9VtyuhfbB9bGydhBoV9jK5FADGq4T0suRrHNltnbBdFk6IKn1Mhv3Mf/xHtWpNDJ2JSv3F//VfqdE890L277lPeiRf+LrFCJhJ1q5jSkJ7Dt5fnj9//nELc2ivzoK3zz7prb/3e+lLX/lKFdpjwlFraC9fI7RHdT7OSgkAkyXmSMUSwsOtJlZONvbtHNbPe9Ob0imnnlpNXu3p7a36pDjfSG9v71fzbZ9tiDGCOztVaO/o6Pj7+fPmvSpWe4nQvmTp0vSWHNq/8a1vVcs9Dl2bvVTYY4vTXMfp2eOseKrtAEyWWDoyKumHH354tVJNqbiXIB+V+DhC/JOf/CS96S1vSaefcUY65eSTU2d3d7Xue+7Tavl+/5Vvu0B0R3Bn1mtWIV6Xw/r/FSdV6s2hPQL67/3+76dLL7ssveMd76gOR5bQHluE87gc24EHHpj23nvv6oQYJp8CMJmiSHTjjTdWK84cffTR1VHfGPseytlYQ4T3H/3oR+ltb397es1rX5uOO+64qrBUneF7/vy9Oru6vtow5wrBnZ0guO+bG8HPRgiPSntUNuKQ432rVqU/zA1gXI5DlRHwI7RHIxonUorGM6rs8f2111679XTywMiiWhhVwzLxrjozMbBd11xzTbXoQVTe99hjj6oPKmc6LieFqobNfPvb6V3vfnf6nfPOS4cceujWo8Xz5s49paNef5chM8xI2++Fx0jGsxxk8zTvP124224vjAYvpu688bd/Oz3rqKPSr7zsZVUFfffmJJ9yBtMDDjigCh1RxYj7RGi/d2aXyIqF4B9u2WKdsFieIJa1iXE7UZJpNDezkyivgyiAzMnb3nl7dt4OmMp/tJx8JsJ6BIkIHCEqhhFGYu3qWH96it2Xt+uaX+M9MuB9wZD3RWzxabIrb1HWnpu33fO2JG9Lm1vXTD3JeP+ceOKJ1dc4A2ucvCm+xiTW6JdCHBGuVpy54IJ0ztlnp/P/+q/T6kceqRZOiD4tX3d8rV6/YiIvestBIrgzY8G9OTv/L+fPn39hHGKM5bJOPfXU9NvnnZfOPuecdN11120N7dEQxnbkkUdWDWYJIbfddlt1CHMaPdIMHrHFP3xH3lbm7YG8bfLXZ6Jtat5Oydtv5e23J/OBI6DHSWbiPRaBvXViXTldfFmzOo5aRQgpy+JNov+dt4/l7XvND7owEd15W978kHtw3o7M2zHND77LputJRLX9hS98YfXeivHvUYC66667qvdPHB2OyvuTObhv2bw5ffELX0iLcl/1/gsvrCrzEejzB+SV+fuD8v3HHaQEdwR3ZjK4H5RD+B27LVqUumKCab7fBe97X7ogN3Cf/NSnqqARolGMIHHsscdWjWI5U2osv3XFFVdMx2TUH+bt+3m7JG/X5m2NvzJT6PS8fTYNVhh3SLxX9ttvv+qDbjkrZISH/r4tg5O8a/UqzA8ewZqf6vnyho0bqxAySfNFNuftjXn7vD8rU2hRM8Cf2txOTlM8pPewww5LRxxxRPW+evTRR6sPwDfccENat25dNSwmxEmali5dmn54ySXpe9/5TvrcRRdVP4+TM+Xb/V1OUX8+3iUi77jnHn9tBHemP7hXQ2Q6O3+8cLfdXhQnrYjg/u73vjfduXJlNS5wXvysu7u6XVQxTjjhhLR48eIqdMQSW3FY/6qrrqqqHVPkR3n7n3n7Vt5u91dlmsWb6KodCe8RCPbdd78qkPcP9KdNmzanp9Y9nrZseDJfV8+ZPdakHkgDOd80al1pXg4be++9PIf43rRx46Z08803VyFkB8QwmJPy9lN/TqbZgXl7Wd7+WzPET7r4UHz88cdXR7Oin4qzpUZhKVaWiaFn8WE5xPCzV77ylenfPvrR9J53vztdd8011Qfo+Hm+3ZH1ev1mwZ3pYHIqIyrr3A63letzqHhNT2/vi2KSXITxM886K+2eg/mfv+Md1W26889DhPaotMck1GgMYyJqjClctWrVVIT29Xn717yd0Gzs/1+hnRkSx8PP3JEHiMP58+fPTf19fWnDhk1p3ZqH0xNP5pf4Xkel3sNPSR2HnZY6DjopdS7aO3XUowr4WLrjrpVVaJ8/f146+OCDt46Dn6DfF9qZIXfl7SNpcPjZ8Xn7l7ytm8x/IML3rbfeWo1tj1XPYlhnDDc75ZRTtg7vDDEX62tf+1r631/8YnVOkgj08b5qLsTwUWf2RnCnrYN7f26kcoNX6+rq+n+i4YrGLSabnv3a16YP/O3fVsNfoqJeKhWHHnpoOuaYY9Lq1aurE2DEkJkI8DG2fRLF2PS/zdvhwgZtJF6HF03kjjH8JYaaNQYaaVN+jz31xGPpqf6OdNRZb0unvf0f0/xT3pK27H5Qasxflhp7H5NqSw9LPXPmpo0bnkp333tf2rJ5SxVEli9fPtHnHnNAPuZPSBu4Im9/2GzfL0yDk6InRfRLZYJqmUMSIf6MM86oxrKXEzSFd51/fvX9q1/zmtSXQ3+coKm3t/cl+aqXt57YaXsbCO5Md6qPKsMf5QZrRVQdoiGLoTEx7OWiz35266z8GAoTDeHpp59eVdfjBEvROMbh/xh/G1WOSfLxvD0rb1Hqv98fiDZz4UTuFFW+CBGDK8ZsSk9u2JiO/OXfSL907h+kh9Y30sP33ZXSXZengV98JzUevi01uuamxm4rqvC+dt369PDqR1NnRz0tWbI0TfA07X/vT0ebiQUE/ipvR+Tto5P1oLfffnt11DiODkc/FXNDosgUK8/E9xG2oxj16Jo16X0f+EC1vnsUpKI631zh6Z/jccpyktvbQHBnunV1d3efH0NkIoif+KIXpSOPOiq9PzdoIRqyCBtRiT/77LOrxjDCfNw+fhZjbleuXDkZz+PqNHgY9c1p8LAqtKOb0uDqReMyeHbHlPoatdSX3ze9yw5JK054VfrpLfenm2+9LaVV16fahjW5Je9MjQ1rU+OJB1KjVs8Bfl6qdXSktes3VO/PefPnbh2rOw6xDOrX/OloUzEM7ffS4PyLK3b0waKyfs8991RFqOiv4ghyXI7gHgE+wnsE7ujbLrroonTNtdem33jjGweXZM3vtdwfHpqvf51qOoI7M2akSkHz1NBvzaFicYTzGNN+7hvekL761a+mq37+8xRnTY3bRDiPSnscqo9x7NEQxrCZmAwUoT0qFTvo/Xk7Ng2uFgPt7nvjvUNnnFQpDr939qbUPSd1L9or3bl2cKz70sWLUt+ae3NgfzyH9Rzcc3gfqPekRn5PRnjv6JyTNg50pk2bt6TuHEZ6mvNNxvmheK0/G23usjQ4/v3dO/pAcRQ4hnFG3xT9VPRdMYTmta99bdWnRUW+fAD+4Ac/WA3/PO4FL0ib84fjCPT5/fqeclbw7W0guDOtgb6rq+vPY7WYLc1JPDEc5sMf+Uh1fXdXVzVEJmbpv+QlL6nGscchxahixH3j6z07NqP+0by9Im9/6a/BLHLDeN9nVbk91ouZt3vqWrg0bVi/Lj324L1p/333SV1961Pf6pWDZyJOOax39KS+ZUelvj1iWez8IbsjB/kc3rf0D1SLy5cxulP1fGGG/U3efjlvD030AWLo5n333VeF9igyxRKssRRkhPIzzzyzqspH6J47b1767ve+l77//e+n173+9Wlh7v8G8vuwu6cnhu/86ljGuoPgzqQbrrGJBikHinNyA7UiTkoRa9u+6qyz0le/9rV08y9+UY3JLWdG/bVf+7Vq0k85TXQ0ijEePhrGHVizPdZff37evuEvxCzzwHjvMNAYyP/rT93zd0/de+6Xv+/LP0vpztVPpQdv+mnq2rA6NeK/zRvS5s1b0uEvOTMtecEr08auHCRqnaneMz8ifPU4E6jyOUMMs83Fzf7hyok+wN13310NL4v+riysEMWnk046qervoijV2zx69W8f/3g66KCD0vOPO646SVMUs3J/947o57a3geDOpBtpqExnZ+f/GYfeY5hMrMseJ176zH/8R3WfCOlRUX/+859fLf0YQ2Ke9axnVSe2iOAQ4X0Hqu3fTYOHRO/212EWGtewkwgOfVv6U61/S+roqKc5B70g9XZ3pSfvuTHdfMmX0oY7r8wBIIauNZdm3bwurb7ntpSWHJo6F69IW2pdOUj0pJ7OlEN9X7WK0zg97k/GLBSLE5yYJljcif7roYceqqru8Z6JYlSI4Z7nnnvu1sJUzNn6wSWXpJ9cdlk681WvSovi7OCD5zWJFWaOMjkVwZ0ZV4WD3CDlcH7ilhza91y6NL3s5S9Pl+TG65prrqnG/pVwcM4556Q777yzGiNYJqnGofpoEKNiMQExSe6MNLjkI8xG4z5hQbyfBuqdqb723mp8+7yDj0v9N3w1pZu+mepb1ldV9VgqsmrMc4h/cOWtafXV/5Xq61en/vlL026dW3Jwr6Wn8gfmOMw/Trf5kzFL9afB4ZRfmMid77333qrQFH1XnJDpyCOPrFadiXMiHH300VsXWwif//zn0+GHH56OfvazqzHwce6Sjnr9rdURrsFP1cNvILgzFUF96Far18+LqnocFnzOc56T9tt///TFL32pun2MA4yJPS996UurKsX9999fnU46DjdGAxgNWSwJOQHfSTt4EhtoA3GkaFzjb9evfzJtbnSktO7BVL/7stR7yAlpwbID0sCDv0gD6x/PLXhXauRP09Xk1J5FqWvN7an/Z59N6zduTgt6OtOenRtTo95dDVkb57jazWnwjK8wm702b18f750efPDBahWZEEWnWNM9ClMR6F//+tdv/Xn0hRdffHF1AqfTcr8XQ0LjXdbR2fmG/H7rNMYdwZ1pNczhvXpuqH49Gp2FCxdWk1JvueWWdMkPf1g1YDEuMMbuvfrVr66qE3HGx9YZ9FGliAZxnGKC3Mv8NdgJxEkLxrUkZBySX/vYYyn1LEj1O3+UOlf+JHUeeHzqXXFkTuub00D/5sHlHzu7U2PLhtS/9v60YaAz9XR3pgN7H09z5vSkdU9tqFbGGKeYS/KwPxk7gVeO90NoFJqir4rhMqXqHkM+4yhyLA353Oc+t1o1LYL6E/nrN7/5zXTc85+fDjr44GqFmdwfLs795ZnR8zVG2EBwZ0qDe/PyqZ2dncs35oYpGqjnHHNM+u53v7u1AYtD8S960YuqFWZiAmqptpelteJsquOclJoTSzo9DR72hJ3Bj8d7hwgNjz/5VG6tO1Lv3T9K8x+9IXXMX5wG5i5JWxq1atWYTZs2pqc2rE+bGl1pt7ld6fAFm9PCns7U1+hId+QP0RE+xukH/lTsRH4pjfNoVwT36K/KUM8YGhPDPeNIcpybpAT88J3cD8aZjZ+Xw3tnrOter0ef998MiUFwZ1oNPbSXG6Ozo0GK6nqE9gjkl/zoR9Vty5rsZ511VjUhtXkmuarBi+uigYvgPk5nJVU/di5fncid7rv33rT2yQ2p3tmTdt+4Ku1TX5OWLsghfcH8NLe3J82b05uWLlqQDl4yNx2xZ3fabV5vyh+X0y23/KL68DwBX/anYicSRaBxDbeM4WVxlLisphbvo1hB5o477khHHHFEdV6SKFpFoL/u+uvTz6+6Kh1//PFpr732KsWql9VqtXkmpyK4M2PBPTdEr4izN8b67Mcdd1y64YYb0nXXXVed2CUasFg2KybvxEksDjzwwKqhK8Nkohofs/LH4V15+5G/AjuZn6UJTPqMD7535sBw/wMPVmPeF8zpTvstWZgO2Xd5OuzAfdMRB6xIh+23V1qxbHHq6ulNjz2xPt14443jfc8Vt+ftUn8qdjKxROT/PdYbR/iO1dDiaHF8HxPFI5TH11jb/RWveEXVL0b/F+/PH/34x1WYP+SQQ6rLnZ2dC/PDnG48O4I702bIMJnn54bogL7cIEXjFMH8iiuuqJZ3LLPrf/mXf7kK6zHWPcJ9fI0GLB4jfh4TV8fo53l7j78AO6mPTPSDdAxBu/nmm9Pd99yX1qx9ojoBWq1Wr07UtH7DxvTAQ4+kW2+7LV1//XVbJ9dNwL/6E7GT+vs0eKbVMYmqe1ldJr5GnxZzt2Jd95NPPnnr+UmqTwVXXpmeXLcuHXnUUdVE1uj36vX6r5qcymTrtAsY0ye8ev2MaIhiCMwhhx1WNWRX/fzn1XXRcEVDFQ3ZtddeWy0BWcYG9lXBolaN0x2HX7fH2Yl9NG/vzdu8idw5jl7FVt6PUREsp2PfgRObFRubzw92VtG/3JVS2u54lei3yqIL0Z/FkeX9998/3XTTTdXKaS94wQuqs6f25PfhTfkDdWxH5eC+bK+9qiPP+b15evOkhfY6k5fH7ALGIjdAp0TDteeSJdX4vrtWrqwaqQgN0bAdc8wxafHixdWEnhUrVlQNXNy+TOwZR3CPisit9jg7sTj09K4dfZAI6/GhOc6LEEF+EkJ7uDBvT/oTsROLZVnHdEQ3xrhHXxaiCBUfjqMwFWKS6qmnnlp939PdXQ2huebaa9OKffdN++23X1Whz/3jIfnqI+xyBHemW2+9Xj++Pzdcy/feOx1w4IHV4fqYbBqV9nDiiSdWl6twv+eeVQNXxrdHgzbGw/Yxi+6v7G52AR/M251t9pzijJMf8KdhFxBHvLY7AST6s+i7omJehstE37Zo0aKqoh7LQsb35cSDMe8rPlBHVT7GvjeHm77YUBkEd6bb83Ljsziq6/uuWJEWzJ9fVdtLFSLGuMdk1VhNJr4vYwLL+PZSERyDd6bBE7/AruDX2uz5xBCCPn8WdgGxjuOfj+WGpehUzkkSFfiYpBrj32OMe5xVNcJ8zDO55dZbq7ODH3jQQWn3HOijD6zX6ycJ6gjuTJvmMpDPj/Vo5+VGKg4Drs9B/Lbbb6+uj0P1sUTW8uXLq2EyMXEngnoJ7iFCe6m+jyLOzPQRe5xdSKww82dt8lyiAmkVJ3Yl/563e7Z3ozLsM/qwKFRFnxdV9hiaFqvLHHvssdXtent60j333FMNI913v/3S0mXLSnB/nl2N4M60KKvK5IbnuX250do9h/IYv/7gQw+lu+++u5qwE+KMctGIRYMWwT2+RgMXWwT/MkZwO/4uOaEcu55/yNu/zfBz+GzezvenYBd04fZuEIWnskJaOSdJHH2O85TEKk8xvyu+j74yhszcdeed1Tj4CO71wf7zqHzdMuu4I7gznQH+yEYO7kv23LOaLR+TcuIU6t3d3dX1Rx99dDW+PUJ6HDqMw4al4l5m4m9HTIb7mD3NLuotM/j6j9B+rj8Bu6hP5u3x7QX3KEZF/1b6tAjy0dfFsJiYiBpHnONnISruEexjSeRYbSbrytuRUbE3xh3BnSnVbGDizG+HR3U9Jp3GElj33ndfFc7j+nnz5lUnXophMiXIl0OK8bVU4rfjU9E+2uPswt6apv/cBf8otLOLizlVHx/tBlFFbw3u0a/FOUmiL4xVZ2KBhpiMWoaD3nvvvWlDvs/SJUuq/rG5HORRKu4I7ky5ZgNzUP52ccyQ3yMH96gk3Hf//YMtXg7vMUkntjjDXDRgpdpeJvLE5TLjfhTGtsPgEpEvT1O/2sy9eTs7b39ql8P2z1sQfdjQivvChQu39m8xz6tY9cAD1QkHY+nk3XbbreoH6/X6YVaVQXBnyjUrCAdGEzN33rxqnfZoqGKYTIjGZ++9965OAhMTUqO6EI1YWVWmnBSmHEIcwdV5u9Hehsq38nZMGlyWcd0kP3Y8XswleU7evmhXQ+W2vF0+2g3KUePWIaBlKeSYoBpnEg9R2HrkkUfS6rxFf7lo992rfrBWqx0quCO4M+Wqiam12oEDuZGKJSB3zw3Rk+vXp4cfemjrbWKyagyLiSExEdwjpA8N7ts5Mcxn7WnYRsz5+Is0eOKWd+ft9h18vFi79a/zdngaXAJvrV0M27hotCujX4v+rPRt8bWzs7MK6nG0ed99962CfAwpjWp7hPcFu+1WrT7TPHJ9QNy2dQPBnSkJ7rV6fb9opGI8Xxz2e+Lxx9Pq3FAV++yzT1Vtj9tEw1Vm3ZeKQgT3+NkoVP5geKvy9jd5OzRvL0uDZxW+Im+PjXKfWIM1lri7uHnfU/J2ZN4uyNsDdikM68tplFXNovhU+rUS4GOL1WQiqC9durQK6SXUP7J6dZrT25sW5j4zAn62PP98cbnfGJZHhhF12gWMpDk2b69Y0mp+Du7z581LDz/ySDUhJyoLEexjNn25HI1Ya8NUJqmOcljw2rTj1UTYFXy7uYWleYtBtSvyNqcZOGJy98PNLYL7JrsMxizeMz/N2wnDXVkWWyjDZMrCC9HnReEqiloxNGbVqlXV7dc8+mjq7OhICxYurBZt2Lhx4275x3vlvnCNiakI7kyp3Mjsk1N5tfTVnLlzq+pCNFQhhsbEuu1xZrkI7rG1hvYI7Nuptn/bHoZxKwEdmDzfGi24l/XbW4tSsWhDDKOJrxHci0fXrEkDuf+LIaaxJGSMkc/94965T7xJcGdHGSrDaKF9QSOlJdFYRXCPykGsyR7DXwaaa7bH4cFY57aM2Rt6KLCcPXUE37eXAWgDl4x0xXDDZKLiHoG9zOGKky4VcRS6Pwf7KG7FkJnmkpBLailZDhLBnSkN7otzS7VbHA6cM2dOFc4fzw1SpbmGe4T3ZjUhDT3BRLk8gpimf7m9DEAbiKEyTwx3xdCCVFkaMoJ7GToTw2WK6Cc3bd5c9Zux6lqzH9wjCewI7kyxuXECpgjuvbkBinAeJ54oIriXikNMwGmtSrSG9xH8PFndAoD2EMWkK4e7orUQ1fo1+r34PvrAWMChiH4yfhahvXn21LCb5SAR3Jlq0dAsrIJ7s/FpPQtqrCIT18VYv6EV99bvR/AzuxeANjJqvzR08YUyRDSGj0Yhq9i0cWP1sxhe2vt0cN/D7mUymJzKaKIlqnfmcN6dt0ZuqGI8exENUjRcUWmPMXtDw/p2qgrX2L0AtJFrR7qitT8rxano/0rFPYbFFOs3bKhORtiVg3sUt5oDZBaqtDMZVNwZzfxoaCK0RwMUTU7rWVCjmhCV9uaZ4bYZ0z6G8H6T3QtAG7lxpNA+dJhL6fdCFK+iPyyXt8T5S5pDSHt7esrPF9i9CO5MqdwwzY+v5QxxMSG1v2XMevw8GqTSgI1jmEysJ3mbPQxAG7kjb2u2F95LH1dWiCnj3aOQFeJs47HyWlyOI9bNSam95fZWlUFwZ6rMrV4kObTHFo1PoyW4l0aqtQIxtCIxQni/M41+9kcAmG7rm/1TGim8j/Tz0h9Wl8vPcp/Z0Sxw5a3L7kVwZ0rlhqY7Gp+otncMCenN69N4G7imu+1dANrQXaNdOVKhqrWSvrX/y5fjDKrNI9Lddi2TweRURlNVCDqaDc9YDu6NseJ+l10LQBtaOVpgH/r99pT+M741TIbJoOLOqME9mpg4BFhrVtxbG52hjdc4GrP77VoA2tD9I4X2ocWo7YX5qv+MoaaD/adCKYI7Uy5KBdsE920apYkPlXnIrgWgDT04lhsN7eOG7Q+j/3z650rtCO5Mg5g5H8F9zDcfQ2MmuAMwS4P7eIbKbC16NRqCO4I7UyuH7nqjWSaoNasHozVkw63hPkID94i9C0AbemysYX0sAb5lXLvgjuDOzBo6q34cnrT3AGhD0T9tGa3PG+vPt0nrJqUiuDMtSrVg8hqdp5obALSb9WPto7a7QkzLspAguDMtsX2idxylCr+huQFAu9mYt02T14vWjJFBcGcaRQCf3GrB5kltFAFg8mxq9lMguDM7ldjemJyH26JRBKBNRR/VN5Ybbm+OVyOZkYrgTpsaxwTV/rE2igAwzaKPGpiMBxLaEdzZKTJ+mrTiPQBMukkJ7jo6BHdmImSP/cYNzRQAO3nHqK9DcAcAAAR3dkipLhivBwBjE32m2jyCOwAACO4AAOwo1XYEdwAAENxhx9RqRsEDsPP3dds7+dJWVqBBcAcAAMEdhqdqAAAguCO8A8DOxOBRBHemPaoPvSC6A8AEO1IQ3AEAQHBnF1cO9am2A8DE+1EQ3AEAQHCHp6vsKgYAAII7syjAAwAguAMAAII7AAAI7uykjG0HABDcAQAAwR0AYAbUBo9XW9gBwZ1ppdEBABDcAQAAwZ3JYHIqAIyfI9YI7mh4AAAEd3gmFXcAAMEdAAAQ3AEAQHAHAAAEdwAAQHBnzKpVZRrWlgGAsXee+k0Ed2a6EdIQAcD21azJhuAOAND+FLoQ3AEAZgEVdwR3AAAQ3AEAAMEdAAAQ3AEA2o1JqgjuAACzILCbpIrgDgAAgjsAADuoYZgMgjtt9eKpe/kAQK1WqzYQ3Gmnlsk+AAAQ3AEAAMEdAAAEd3YFteYGAIDgDgAACO4AACC4AwAAgjsAAAjuAACA4A4AAAjuTJlY/rHR3ACA7dNnIrgzo+EdABhjv9kQ3RHcAQBAcAcAYMeptyO4AwCA4A4AAAju7BwaDYf/AGA7LOqA4A4AMAsociG4AwCA4A7bV1UQrE0LACC4AwAAgjs7wEQbANBnIrgDAOw0DCpFcEcjBAAguAMAMBlqNYNlENyZyUbILgCAsWk09JsI7sxgG2QXAAAI7rQ/lQMAGGunqddEcAcAaH9OVojgzoy2QXYBAIDgTvtz0A8AQHBnFlBxBwAQ3JkFVNwBYKydpl4TwZ0ZpOIOAGPtNPWaCO4AAAI8gjuMxkE/ABhrp6nXRHAHAJgV1NoR3AEAQHAHAAAEdwAAQHBnahmrBwAguAMAAII7k8HCVgAAgjuzgKEyADDWTlOvieAOAACCOwAAO069HcEdAGA2qZkhhuAOAACCOwxnuJpBTSUBgF1co9Go+kN9IoI77R3mNVQAoC9EcAcAAAR3AIAp00hWl0FwZ0ZboYYZ8gAAgjvtndkbg5UDZ4MDABDcafv0bh8AwBg4Po3gDgAwCyh1IbgDAIDgDgAACO4AAIDgDgDQLkxORXAHAJgFTE5FcAcAaPvU3ki1WELZMsoI7gAAbcxZxhHcAQBAcAcAAAR3AABAcAcAAMEdAAAQ3AEAAMEdAAAEdwAAQHAHAAAEdwCAaVFrnk11oL/fzmDCOu0CAIAptbmvry/N6e1Nuy9bZm8wYSruAABTFbTq9bR506aFDz300EGbt2xJCxcutFMQ3AEA2kkMj+nr70/1jo7nHXrooXfUUvrU6tWrF9szCO4AAG0khsc8tX59evXZZ6cvfOUr6YL3v/+NObyfb88guAMAtFlwj+03fvM306GHHRaV93TQwQcbK8OEmZwKADAFurq6UkcO61/4z/9Ml156afqfn/1seuyxxzbYMwjuTKmGXQAA4w7unTm4f/pTn0rLli1LnZ2dEdztGCbMUBkmrKxJCwC7en84XJ84MDCQtvT1pZNPOaXa4jaxygxMlIo7AMAU6M+hfcuWLemc170u7bl0afr+975XXQbBHQCgjQw0GqmRt31WrEiL99gj9ff3V5dhohyvAQCYygA/MJAGcmg3xBTBHQCgzbRW1iO4l8uiO4I7AEAbqg0J6zWTUxHcAQDaVyNZWhnBHQCgvcVykckwGQR3AIC2FuPbVdsR3AEA2ly1mkxzachkOUgEdwCA9tS6wozYjuAOANDOrOGO4M50UB0AgEnoNyO8C/AI7gAAILgDADAeI1XWTU5FcAcAmGUhHgR3AIA2yu3p6ZMv1YR4BHcAgDZiSAyCOwDALFKrDVbbVdoR3AEAZkmGtwsQ3AEA2ldjyFcQ3JlyKgUAML6wXr5v6EcR3JnWRsj4PAAYZ+fZ2PpVxR3BnRljSSsA2E5/2LxOj4ngjuAOADOo0WhU/eE2fWLrUpDN7xtldRkQ3AEA2i7VD36NUG9ddwR3AIA21VqFd5QawR0AoE0NM2QGBHcAgHZkmAyCOwDALCC0I7gDAMwOtWQ5SAR3AAAQ3AEA2HEGyyC4AwAI7wjuAABMBuPbEdwBAGYB1XYEdwAAAR7BHYZrcTQ5ADAhtZohMwjuAADtGNSrDQR3AIA21zxSXWv5HgR3pq3xAQDG32/WVN8R3JlJGiEAGOwPt+kTc2ivDV5h5yC4MyOtkn0AAOPpM1ur7o5cI7gzbTQ4ADDGLnOwz2yM8HMQ3AEA2i3EJ+u3I7gz3QyVAYDxd5+xNRrCO4I700ujAwAT6D8VvxDcAQDaPLTbBQjuzEzro/kBABDcae/MbhcAwMTFWu+peRZVENyZ0vbGLgCACfehpR+1JCSCOwBAm4b28tXSkAjuAACzJchbYQbBnammQgAA4+k4nT0VwR0AYNbYWmEX2BHcAQBmRYK3DxDcAQDaVQyNMSkVwR0AoB3Vak8H9eb67SC4AwC0m0bj6WUgW8a214R4BHdmiiWtAJDRG4OBvLVPbK24p6eHyRgyg+AOAND+Cd8+QHAHAGj30F5iu2PVCO5MHevPAgAI7gAAO7OtZa8ogCmCIbgDALSnrUNj4gi2RR0Q3AEA2pyKO4I7AMDsCe+iO4I7AECbqgbIDFnbHQR3AIB20Rwa0zC2HcEdAKD9ldjujOMI7gAAsyS8g+AOAACCOwAAYxZj25vrtpuQiuAOANDu4X2YddsNmUFwBwBoQyWoq7wjuDOzjZHZ8QAwLgI8gjuCOwDMVJiq15/RJ44U0PWcCO4AAO2mGeYbYwj0ILgz6TQ4ALADWd4uQHBnWkL7CDPkAYDthHX9J4I7AEB7E9kR3NHwAECbqg393oIOCO4AALMryIPgDgAgvCO4AwAgsCO40/4aDWP0AGAiXeiQryC4AwDMkhAPgjsAgLCO4A5DXjx1Lx8AqNVq1QaCOwDAbA72SdUdwR0AoO0J7QjuAACzgEE0CO4AAG2f2mtbK+7VWHh7BMEdAKANlfOglIv2CII7AEAbaq42U8K7ijuCOwBAO2o0mvldZEdwBwAAwR0AgPGLOnujse2IdlV3BHemh8YGACbef+YQXwV5/SmCOwBAm2V2uwDBnRnReOYCVtV6tCoHAOzS3WNj1P6wDJdpjNKfguDO5BLQAWD83efQIG+XILgz5UqFQKUAAMbWdVbJvbZNWHekGsGd6aPBAYCxdZlDvlYhXgEMwR0AoL00UsvQmHIGVQUwBHemrxVSKQCAsao1N/0ngjsz0AKpFADAdsVqM+Xb1h8PDNg3CO5MX0MEAIy93+zo6Ki25ARMCO4AAO1r8+bNacuWLSanssM67QLGRaUAAMako15P9Y6OdOUVV6QlS5emrq6uwco7CO5MC5UCABhbcO/sTN3d3enTn/xk2mv58tTT05M6BXd2gKEyAABToJyAKcJ7Zw7xGzZsSKamsiNU3Jkwa9ECwGB/2NonlsC+edOm1LdlSzr/Pe9Jhxx8cPqHv/u7tHLlSp0nE6bijuAOAJPZH7YOK83f9+fw/qyjjkq/++Y3p97e3t3tMSZKxR0AYLLlwB6TUXt6e9M/fvCD6eqrr0633nLLPatXr/6YnYPgDgDQRqISP2fOnHT7bbfde/lll/3r7osWfebEk066155BcAcAaDOxbntvb+/te+yxx/sWLFhgWWV2iDHuAABTqFar9Ublvb+/P9115512CII7AEC7W7NmjZ2A4A4A0O5iTXcQ3AEAQHAHAGA8GnYBgjsaIAAAwR2EdwCYjH6yoddEcKdN1KxFC8CuHtRzOI/+cNg+UT+J4I7gDgDt2SfqGRHcAQBmG0NlENwBANqXqjuCOwBAm2skCzkguAMAgOAOo2kYowcAILgDAACCOwAACO4AAIDgTptzAiYASCOfORUEdwAAENwBAADBHQAAENwBAEBwBwAABHcAAEBwBwAAwR0AABDcadMXT93LB4BdW6PRcPIlBHfarmWyDwAABHcAAEBwBwAAwR0AABDcAQAAwR0AAAR3AABAcGf6WAwSALavpt9EcKctGycnnACAqj/UJyK401ZUDwBg5PC+tb900kIEdwCAWZHiR7xKqEdwBwBoF8OE81KRr9dFLwR3ZqghAgC2a0OW6h0dacmSJfYGgjsAQNtoFruiwp5D+8EPrV79J+vWrl3R1d1t3yC4AwC0VXbP26ZNm9KSpUv3/63f/M1/OuZ5z7vs4QcfPM2eQXAHAGiLxN6oQnvfli1RbU9/+Ed/lP7Hpz+d/ua9712xYr/93mIHIbgDALRVfs8BfmAgHX7EEWnt2rXpq1/5SpozZ85j9gwT1WkXMOFPffW6E04AoD8coT/s7u5OnZ2d6X0XXFBNSr3+2mvTo48+aqUHBHcAgHZSi0Cft1tvuSU9sXZtmjt3bnr44YftGCb+IdEuAACYfP19fWnL5s3p3HPPTb+et835+4GBATsGwZ1pEEtbWcsdAMYW3HNI78vh/bTTT08nn3pq2rxpU+rv77djENyZJsa0A8DYNItd8+fPT3PnzWt2o/pRBHcAgLbU199fDZtR/EJwZ1psHSBjqAwAjN2QsC66I7gzdYG9GdQ1NAAwoY50a9GrWtddAQzBnakM7eUMcJoaABhD/zn0+5bAri9FcGdaKgZV1b3lkJ8JNgDoHhvP6A9rowR5fSeCO9PTODUDPAAwYpIftqruyDWCO9Ma2qsGR6UAAMbebybzxBDcAQDaTxS4nLAQwZ0ZbYfsAgCYcJjXjyK4I6wDQJt5Rq1d9R3BnRlthACAUTrOlp6zOT9MQQzBHQCg3QyzmIMiGII709P+DPfiqXv5AECszf6M9dmHWRZSxR3BneljjB4ATLwbtQsQ3JlytdrTJ18S3gFgfN3o1uSuD0VwZ6ppaABg4t1oMkwGwR0AoO0J7QjuAACzQCMZ347gznQpp28GAMbefdoFCO4AAG0U0IdbDlKQR3BnJjRGqLaPpZECgJ29jxTaEdwBAGZroE/bjms34BTBnWlvhACAsXSaDX0ogjszwJAYABh/9znke+EdwZ0ps7WBsaIMAIy/H232nw39KII7AMAs4Mg1gjvTyemaAWCCuV14R3BnepP7Mw/zleWvHAIEYJcO5sOt4z5SUNdnIrgzUw0VALD9PrFcK7YjuDMdLZJ9AADjFSdoEtgR3JnW3J4Gh8QYFgMAYwvsKT19IiblLwR3AIA21jpEptoUwBDcAQDaMbmrtSO4AwC0pWdU1Zvj3AdzvCCP4M4M0PgAwBjDe0omqSK4M30NUENwB4BnBvLh1nHf9gaDfej2bgeCO5OY3u0DABh399nQhyK4AwDMivDe/KrejuDO1DY2wwyTAQDGFtZbV5axHCSCO1Ma2qs2x64AgPEF9pLbW78K7gjuTHcjBACMTWdnZ7XpS9nh15JdwGhU2gFgYn1n+bp+/frUO2eOPhXBnRlsmGJ5qziphKWtANhFlX6wXt92EENU12v5Zx0dHemHP/hBWrJ0aeru6UkdnaIXgjsAQHuFrBzau7u703985jNpWQT3rq5nBHwYD68exi4q66rrADAmjYGBqiJ/wIEHpv0POCA9tWGD4M6OfRi0C9huWC/f2hsAMGabNm9OfX196a/OPz8d9exnp394//vT9TfcIHsxYT72AQBMgRj7Htudd9yRlixZkn71zDNTf19fjz3DRPnUBwAwBbq6ulJvb2/6l//+39NPLr003X333Zc9/NBDH7RnENyZHk4cAQBj1tPTk1atWnXr9ddf/1dL9tzzy0ceddRmewXBnSnO6400MDCwzc8sAwkAw/eZpdA1kL/29vbev2zZsv81Z86c9MQTT9hBTJgx7oy9IRpyuQT3hio8ALuwMpa9JbkPvb43hs3ERNUHH3zQDkNwBwBoV6XIFSdkAsEdAAAEd3ZVpUJgNDsAjEMMn4mvQ+aHgeDOVKd3+wAAQHAHANjJlKKXFdgQ3JmeNmf0SrvlIAHQVzaesapMoxnYHa9GcGdmGia7AADGm+rtAwR3AAAQ3AEAAMEdAAAQ3JlCpqICwNg0jG9HcKedwrpVZQAgh6l6fZs+sXwvuiO4MzMajdQQ1AEABHfaO7QDACC40+65vVlprwnwAACCOwDAziZKXiaqIrgz7Q3PQIxz1/gAwOhBfWDg6WGm+k0Ed6a/JWo8o/GJWfOCPAA8vZJMrSXAg+BO2zVSAMDThHYEdwAA2IV12gWMJIbBqBoAwPjVWr4aVspkUXEHAADBHQBg19MYZlEHENwBAGZQLNZgwQYEd9q+oQKAXVlU1gV3BHcAAEBwZwKiomAvAMDo3WWzz9zad6rGI7gzIw0RALCdDlOPieDOTGidFR/rumuMAGAc3aiVZRDcmQEDJcg3OfQHAMP0icI6gjsz2BoN2xAJ7gBgOUgEdwAAQHAHAJgazpqK4M7MNUDJ5BoAGFe/aTcwBTrtAkZl7XYAmEB6b2z7vQIYk0DFHQAABHd26hdP3csHAKwog+AOAAAI7gAAILgDAACCOwAACO7QqtGwhjsAjLf7HOF7ENwBAGYioDeLW1aWQXCnfRqmYX6mkQKAwf5Qn4jgTtuHdwBAv4ngTlu1PoOna9YIAQAI7rQzhwABYOws7IDgjgYIAGDX1GkXMHJWbw6NyV+Hq7fHRBxLRQKwqxtxcmpLH6m3ZDKouDPeNL9NQwUAjNxXguAOANCWmb15tFpxC8EdAKDt07uqO4I7AAAI7gAAgODO7NUwTg8AxqfZd1p9DcGdNmmTBHoAdm0RzIddDlJgR3BnWoN5S+MTzc9ANELCOgCM3HdGP9k8z0mjtS8FwR0AAAR3AADGqwyTMVwGwZ1pY1gMAIw/t9sFCO4AACC4wzOVQ3wxyaZcbv5s2Bn0ALArhql6vdpAcGcGc3szpLeGeABgbKLw1VxhBgR3AAAQ3AEAmAg1dgR3AAAQ3GEYLRNSAYDtdZuD/WattQ+1mAOCO9PSAKWRD/eZQQ8Ag8pKa7WW/hMEdwCAdg/ydgGCOwBA+1NxR3AHAADBHYbRMqFG9QAAxqjRqPrNWjJsBsGd6W5/mo0QADAOVpRBcKcdGpuaxgiAXVws/7hNf6hvRHAHAGhfQ4tZjlEjuAMAwC6q0y5gJI1y5jcAYMJ9adlgR6m4AwCA4A4AsOtxxBrBnfZpkGo1q8oAQEu/CII7MyvG5A0zLq8Ed2P2ABDany5mNdIwK8roKxHcAQDaz7DhHQR3AAAQ3AEAgDZhHXfGxZh2ABi1o3zmmPYYA59MYGXHqbgDAIDgzs7KcpAAoE9EcAcAAAR3JqIxwnruAMDTaq39JgjuzJQBuwAAQHCnzam4AwDMKMtBMrrWyTYm3gDAuMWwmdhMYGVHqbgzwTw/OIPeGD4A9IlWlUFwBwBoa6WAVYJ7KWeJ8QjuzEyjZBcAAAjutHloNykVACbaidoHCO4AAG2d2ZMj1gjuAABtrxrjruKO4E5bNEhm0APANv3iViWw6ycR3GnLRgoAgCnlBEwAAFOl5cRLCl7sKBV3AAAQ3AEAAMEdAAAEdxhkMSsAGNkzVlor31sOEsGdaW+QxtJIAcAuHt5biewI7syI6uxvqgYAMLZ+M/pMa7kjuDMTak+3RHYGAIwlvNsFCO4AAO2e2hvDfw87yAmYGKXd2fYwn6YHAMYZ3nMfGv2pIadMBhV3AAAQ3JntRqsS1Ot1FQQAdnlWWkNwBwAABHcAABDcAQAAwR0AoF2Z/YXgDgAAgjuMjxn0AKBPRHCnXQ0MWP4RAEBwp63Feu72AgCA4E6bcwgQAEBwBwAABHcAABDc2UVfOPV6NYPeZFUAdmWlH4x+EQR32palrwAABHcEcwCY1RyTRnAHAADBHQCAHaXajuDOtCvDZUxCBQAQ3Gnn4G4XAMDofWWtts28MMUupkqnXcBIttfwmLwKAKP3iUI8k0nFne2Hd40OAOhDEdwBAHZajk4juKPRAQAQ3AEAAMGdncHQGfQAsCv3iSC40/bMlgcA4R3BHQAAENwBAEBwBwAABHcAABDcYVgmogLAmDrMajNdFcGdthCz5+t1Lx8AsEQygjvtR8UdAEBwBwAABHcAABDcAQAAwR0AAAR3u4CJMIMeAAaXSrbSGoI7AAAguAMATAWLJyO4AwDMlvDu3CcI7gAAs4B5YAjuAAAguMOw4nBfdcCvpXpQVpVxKBAAQHAHAJgVLJGM4A4AAAjuAABTwlBSBHcAABDc4f9n796D7Dzr+4C/q5slW77Isi3ZYMt3DPgGBowDJCSAExoP1GDIMIRQ0qG0nU6S6TQ0M5lJm16mzbRpmv7TdpK0zUxISEonCZBws2Njrr7J+IovsuW7LFmyLeuyu9rL6fN99rzro/VKXll7OSt9PpM3Z3fPOavlXen3fP17n+d5AQAQ3AEAAMEdAKBPdLoHCO4sQAXav/y0+7gDwNFu6piYEdMIieAOANDvus0u4R3BnYWrQ43LfgAw0zETBHcAABDcYXo6BwBwKANnp/yf0RPBnQUoPpOPihAAHJzNGxDcAQBAcIdDZjtIADAmIrjTbwWp2X+ee7tnrfl7AAjt7m2C4A4AAAjuAAAguAMAAII7881MdgAAwR0AABDcAQBAcOdo0rP1o62vAKDZb1wEwR0AABDcmQFdBACYuU7Hpg4I7gAAi4GWF4I7AMAioOOO4A4AsAjouCO4AwAsAjruCO70jWx7tWTJkqbTUZoAOIoDehkHMx7mAMEdAGDxJXrnAMEdAAAEdwAAQHAHAAAEdwAAENwBAADBnUUm20HmAACaV46J+dzOMgjuAAAguAMAAII7AAAguDM3MkfPPD0AOLTh0ylAcAcAWARs4oDgDgAAgjsAALNAvx3Bnf4oRvZxB4D9xsWpzHFHcAcAWATBHQR3AIDFEOadAgR3AID+Z6oMgjsLVH2UHwCY6ZjZMW4iuAMAgOAOAAAI7ix2LvoBAAjuLIrkLroDAAjuLCrtDZgsvgEA+7gjuKNAAYBxEQR3AAAQ3AEAAMEdAAAEd9hPp7EVJACA4A4AAAjuAAAguAMAAII7/au9ARMAsP8+7taFIbgDACyC4K6theAOALAI6LgjuAMAgOAOAAAI7gAAgOAOAACCO0c9q+MBAAR3AABAcAcAAMGdo1h759ROx261ABgT3U0cwR0AYLHS3EJwBwAAwR0AgMOVbrvpMwjuAACLJLyD4A4AAII7AAAguAMAAII7c6PTqXu227cdAEBwZxHJjSaWLPHXBwDacXFSGl1OCYI7C1iRnAMAOATCO4I7AAAI7gAAzArrwhDcmfe6o/gAAAjuAACA4A4AML9s6IDgzkIyUQYAQHAHAAAEd+bCgMuAAGBcRHBncRQoRQqAo12nu+uaMRHBHQAAENwBAOaC/juCOwDAImA3NgR3AAAQ3GEGLL4BgIPr6LcjuNMPhUgxAoCDD5dOAYI7AAAI7gAAgODOkcClPwAAwZ1FwLJUAADBncUW4ru7y3QsVgWAyXERBHf6gogOANOHdsEdwZ3+KkxOAQCA4A4AAAjuzAJTZQAABHcAAEBwBwAAwR0AABDcAQAAwR0AAAR3AABAcAcA6EcdmygjuNNH3N4ZAAR2BHcWQWgX3AHg5XERBHcAAEBwBwAAwR0AABDcAQBAcAcAAAR3AABAcAcAAMEdAAAQ3AEAAMEdAAAEd44SubVzjk6n42QAYFwsYyII7vR1cAcABHcEdwAAQHAHAADBHQAAENwBAPqYzRsQ3AEAQHCHA9I3AIAZsFUygjsLXoeEdwAAwR0AABDcAQBAcAcAAAR3AABAcOe1GhgYcBIAoDsmGhcR3AEAAMEdAAAEdwAAQHAHAADBHQAAENwBAADBHQAABHcAAEBwBwAABHcAABDcOVJ1OhMHAACCOwAAILgDAMwb16kR3AEAQHAHAGDWWB+G4M6C1J5pvjYwMODEAEDPmNixoQOCO/1aoAAA4yKCOwDA4gzyTgGCOwBA/zNZBsEdAGAR0HFHcAcAAMEdAAAQ3AEAAMEdAAAEdwAAQHAHAAAEdwAAENwBAADBHQBgcRlw+yUEdwCA/tfpOAcI7ihEAND3dNwR3FGIAAAEdzigyT67jjsAzGDgNF4iuLNADtRnHxgYKLVJcQKAKQNkbXoZIRHcmXedTJGZEtAT2gdMnQGAyXERBHcAgMUkzS5XpBHcmW+T/YNu193UGAB4ldzemCaD4M5CFiGBHQBAcAcAAAR3AAAQ3AEAAMGdPmKWOwDMgK0hEdwBAEBwBwAABHcAAEBwBwAAwR0AABDcAQCOJO42juAOAACCOwAAILhzpHBLCQAAwZ3FFODdFQ4AjIsI7iyuIqVYAWBMNBYiuAMAAII7AAAI7gAAgOAOAACCOwAAILgDAACCOwAACO4AAIDgDgAACO4AACC4AwAAgjsLq9PpNB2nAQBAcKe/DTgFAACCO/2t0z0AABDcAQAWv45WF4I7AAAI7gAAgOAOAAAI7gAAILgDAACCOwAAILgDAIDgDgAACO4AAIDgDgAAgjsAACC4AwCA4A4AAAjuAACA4A4AAII7R6FOxzkAABDcAQAAwZ25+YuzZEkzMDDQdHTjAaCOiSC4AwAAgjsAAAjuAACA4A4AAII7AAAguAMAAII7AMCCsFEygjsAwKJI7qI7gjsAQP/LDQqdBQR3AAAQ3AEAAMEdAODoMOAUILgDAIDgDgAACO4AAEcHu8oguAMAgOAOAAAI7ixu7gIHACC4swgM2NgKAEBwBwAABHcAABDcAQAAwZ0F1s5ttzgVAEBwBwAABHcAABDcAQAAwR0AABDcAQBAcAcAAAR3AAAQ3GFC9m+3hzsAHPoQ6hQguAMAgOAOAAAI7gAAgOAOAACCOwAAM2ZzBwR3AAAQ3AEAAMEdAAAQ3AEAQHAHAAAEdwAAQHAHAADBHQAAENwBAEBwBwBgdrlrKoI7AAAI7gAAHK5Op9FvR3BnYeuQUwAA0xoYGHASENzpp+S+fwdBkQLA0Nip46ExEcGdvqMsAcCrhPnGVWoEdwAAENwBAADBHQAAENwBAEBwBwAABHcAAEBwBwAAwR0AABDcAQAAwR0AAAR3AABAcGeedTrOAQCA4A4AAAjuAAAguAMAAII7AAAguAMAgOAOAAAI7syDgQHnAABAcKfv2b8dAEBwBwAABHcAABDcAQAAwR0AABDcmTG7ygAACO4AAIDgDgAAgjsAACC4AwAAgjsAAAjuAACA4A4AAII7AAAguAMAAII7AAAI7gAAgOAOAAAI7gAAILgDAACCOwAACO4AAIDgDgAACO4AACC4AwAAgjsAACC4AwAskE7HOUBwpx9rk+IEAPsZGHAOENzpl3qkIAEACO4siuCeQ7cdADS0ENwBAADBHQBgjrgijeDOPHPdDwBAcAcAAAR3AAAQ3DmqzHClvB1mADjSZaxrd1YDwR0AABDcWXCd7gEAgOBOHxvw9w4AQHBnjpL2LFpejhXOKgB9aGl3nJqlAdQ8eAR3FiC0z+LclhPKcbwzC0Afyvh03GyOoaI7gjvzndtn9uKZdRZOLMfJTi0AfSjj00mzMNaB4M5CxfdZL1JnOakA9KEzy7HMaUBw5wjP9ocU7t/ojAHQhy5yChDcWbTaue2z3HO/3JkFoA/NeHyayU2YcrMm+x8juDPP6b3zmgrWQbzTSQWgD111aMNjx51UEdzpn8jeFqZD9SoFLJciL3B6AegjWX91idOA4M6RkeBn1886qwD0kavlIgR3jsi83nbhD+PS4EecXgD6yLUHe/JA02Har029Oj3QTF62dmYR3JmP2D5Rbca7c/g6Bylm0z2+SrB/bznOcJIB6ANry/GBQ31T77g33XjXGR9vx85OOx++I8gjuDMnBgY6beE50ALVA4X3Vwnt9elyfNpJBqAP/GI5lr9aQD/QeHcgPSFdWkdwZ451OmN5aDvuA4fQJTjQpcMpPuckA9AH/umhvHim00TH03GfGAcFdwR35tzIQNPM+NLea5jvvqEx1x2AhfXBclz4amPbIW352J1eOv7y+DnqNCO4M6dKqRmthWds7BVz3HuLV2+o7y1sMyxyv+1MA7CA/u2rveBA00AP2tQaH58cPxPczXFHcGeuDeX/jZXCk65B01Osei7/vWqRexUXl+NDTjUACyBbE18x0xdPbUxNF+J7v5bxs7tGbNipRnBnrg2mACWkt8WnLUj5Wo4lS5ZMFqzpCtkM/b5TDcAC+G+HGtrbj3uDej6u42SPTje4j098aqoMgjtzqxSi3bXajI42oylIpTi1Qb1+rRz5fLoOxCGG97PL8RvOOADz6Feag8xt7xkL9wvs7Tg4GaS6n+/bt68+Ll26tBkoXxsbH29GRkbajvug043gzlzbM9AN6WOl+OQvy/Jly+oTw8PDtUi1wb3tvk+d434I/n0zcbtpAJhr68vxn17LG9txLuNeG9TTWc+4GMvK58u6X8v42U3/u8xxR3Bnru0u1WlsrBSefekalEK16thj6xNDQ0O1SKVg5UghmtqFOMTwnjf/uVMOwDz4YjlWHEpQ32/ASke9BPN8ffny5TXED+7dW59buWpVs+KYY5rRfftqg6u7ucOLTjmCO3OqFKSd5WHnSIJ7CekpUKtKMWqD+95SpJYtWzZZwOrlwSnF7RA7C+8sx2858wDMoc+X46dm+uK2S94b4DPutd30Y8q4mIC+e8+eic9XrKhhfjjBfXhyTerzh7EODAR3ZlSsMlVmb4rTUCk+6Sgcs3LlZHDfvXv3ZMc9wb3tuB/GdJnI9pDvd/YBmAM/WY7fOZQ3TA3c7Tz3zF/PxyvLuJgxcdeuXRPBvXyeqTIJ88MvB/eX8p72AMGdubCjHDsTyocGB2s4X7169WQHYufOnbVorVixYnI1/dQFqq+xQH21HOc7/QDMoqyj+ttDfVPv1eTex4T1PJfgnkbWSy+9VJ87/rjjahd+sIyb6bp3d53Z3u7G1s6NB8GdWVUKzd5O0zybG0hkWky6B8eVgrSyO11m+/bttQClaI29fJOJVxS81yB/wA2pf34LAMyCLNC6vhzHHXJQmrJ7Wj7PNNF00/PxscceWxtZOeK41avr1zPnfaQ7zbSMj1stTkVwZ051C9UzuflSClC67scff3xz7HETde+5556rhWvVqlU1uOeyYe+lwBSn1xjc287ID8pxot8EAIcZ2r9bjgtey5vbjnvvUeewl/EvAT5XndPIajvuJ55wQh0D93QbXlHGw2f8GhDcmdu/HBPh+9l8nAK0Z8+e5vjVq2vXPbZu3VoL1QmlSMVwt7PQG/xT1A5jIc6by3FzOdb6bQDwGmSA+nY53vJav0G7CUPvPPel3TnsmRKTj7dt2zbZST/xxBOb7Ma2Z/fuZmRiAev28r5tU78HCO7MqnrHt/Hxx2vnoIT2l3btalYff3wtSm1wT5fhpJNOqoUor2kLXDu3PQVtWXfv99fo0nLcUo43+I0AcAjO7Y4fbzucb5Lueg1MPcE7IT0bN6SRlabVM888Mxny16xZUzd0yGLV7nz2LeXY6deB4M6c6s7F25wilakyO198sTl21apm7ckn1+czVWbLli01uKdYZXFOLhn2dhRS8NqidxjOK8fGcnzIbwWAGfhgOe4sx0WH+416x7W2MZWwnuZWxr8Xy9j45JNP1tdmOunJZYxMaN/VnTpTwvujvfPbzXFHcGdOdOf1bc7Hw0NDtTgloJ9yyin1+SxYTbHKwpwUtnTc89jbcc/rj+kuZj1MmaP41+X4D34zABzEv24mdo85YTa+WTuGtWNbxsY0qhLkMx4+++yzzVNPPVVfkyB/cjfMJ7x377C6aeoceRDcmRPdTsG2zNNLIcq8vXXr1k0+v3nz5rooNZcLs/VVO6e9vaSYbnvC/Cz6jWZi0eqVfjsA9LiimVgX9a9mLSSVsWxqcM/n2UEmAf7UU09tnnjiiTp1NBLkjz/hhGbHjh21mdWdVvOgXw2CO3OuezlvuDM+/kA+eOGFF2oHYf1pp00WskceeaQuykmxymXDzPlri1sKVrvH7SzLHVZ/WI7fTZ30mwI4qmX+Zm6qdHs53jOb3zhjXZpPGQ/bcS1jWsbCPOaKc8bBNLBi/bp1dcvk50twzz7vXff6FSG4M2/GO537lpaC9WIJ7s9t396sX79+cp77448/XovWWWedVQtauhDpsveG93YXmjnwz8uRTsZvleNUvymAoy6w/2Y50lz6/Fz8AdnuuJ3j3jtVJleYMy0mAf7hhx+efP3rzjijLkhNxz2NrBL4d5fjAdNjENyZc+1cvFKENpYPaoF6dsuWemnw9NNPr6/JPL8HH3ywfp7AngWrKXRtcWsL3xwX7t/uBvjfK8flfnMAR7RLmokrrg+V4981c9i4aYN7O6a1oT1XmM8888w6XfShhx6qrz1m5craxHpx587m+eefbxLVy/h5TwnuL1iciuDOnGuLSyk8ufxY96x9pgT3ld3i1LrvvvvqJcF0H7Kvewpdilu7QDUd98PcEnIm1pTj15qJXQRuKsevlONNfosAR4RsCfzPyvF35bi7mbjiOuf3+FjdvQtq23HP+JdtkDPGnXPOOXX8y3TRyDTSM1//+ro15AsluC8prynj5x1TF6bqvnM4ljkFzCDA3zM+NrZlYMmS07eW4J6bSpx/3nkTf4FKIL///vtrxyFFLIt02ttA93bcMw+wvavcPPip7hH5j47vdR8zz3BTOXb7rQL0rdXNxDbAFzcTC07f1UzsxT7vzcYE9/Yu4BnX0ojKOJdtH9OJv/vuuydfu2HDhuaUU09tbvnhD+vC1CjB/fvCOoI786ItNKVYjY2OjX1/5fLlH02n4fFStC644ILJvWpzSfCOO+5orrvuuua73/1uXV2fsN5ul5XiliI3j8G919ua/W++8Xw5suHu0+XYUY6sHhrx2wZYMLnZR3YxyJXT15fjzKYP7pid6Z8J7tF7FTlTZS655JJm06ZNzT333FMbWJnPfuGFF9b/ssjWkN0bL42X0P/d9n0guDOn2qkyeSxF6MYSwj+aMP5IKVY/f801zbnnnNPcXgJ73H777c21115bw3zmub/pTW+qgX7pxKXCerfVp59+uh/+Z53cPS7zGwbgQNJwytXiNrhnmkwaU2lIZYz7yle+UqfJrOyu68rXMk0ma8Hy+uHh4bvKW580p53Z5D8DmZESvm/IYpyE8Mc213syNW9+08QU8nTXf/zjHzd33nlnc9FFF9X57uk+tAt54oQTTnASAVg00nBqd0nLWJZxLMF9zZo19Wu33HJLfV1uUHjO2Wc3F55/ft2sIfc8yfPjY2PXNwnt0x0guDNXujeQeGB0ZOTeXBLcsmVL89hjjzWXX3553eM2zyes33TTTc25555bC126DrnEmNen25DORXvJEQD6XTZcyPiWcSzBPQ2pzF1PZ/22226rDavMec8Yl6kzaWJlvVeaXN1G199MtzDVfHcEd+YlvI+Nj39loLst5F133dWcf/75da773r176zz2FLIE9ixSTVciBa2dF5hLjCd3934HgH6WplSCeyS4p/GU6Z4Z69KguuGGG+pOa+1uM+94+9ubJ594oh7dkL+l0zTfG8j89gT1qQcI7sy1sbGxL7V3Rn3owQebzvh4LVaRkJ7Lg1/72tdqJz5TajLHPcUvRS/vWbt2rZMIQN9LoynjWhvM83EaUm94wxvqTQezrisNqaz7ShPr4je/ublj48Z6E8K8p4yVf10eR51JBHcWRPfS3saRkZEHE8S3lQJ27z33NFe985318uDg0FCdIvPtb3+7XkrMjSlyV9V0LNJ9yKXEFMIUOgDoZ7nRYDu3PQtUswg14+CbS0DPotTsLHNs9+aCP3HVVfW5+++9tw3taWz9qb46gjvzHtanzskrBelP0k1PYbrt1lub173udc3brriiGSpFLJcS02X/8pe/3FxRvpbClhCfrnsKYAJ+iiEA9KtMh8kV4ox1Ce5ZpJp1Xem2Z6vH73//+3U821vGuFUrVzY/+Z73NPfcfXftyKexNTIy8lin0/lOHTszlk5zgODOrJt6i+buItX/s2/fvk6667lc+OTjjzdXf+ADbaivIf3666+vlwvPO++8us9tuwI/71+/fr0TC0DfWrdu3eQarTxmi+N2C8i/+Iu/qDcZTHDPpgxXXXVVvVvqD773vToG1oWpo6P/K/vGHOwAwZ35CvNPjY6MfDVBPkUrU2Muu/TSeuOJLFrNJcV8PcXt0vL1FLL263lPQny74AcA+k3bYGq3gNy8eXMdz3KX8I0bN9arywnv8fc++MF6b5NHy2vS0MqC1fHx8T/qNroOeIDgzlyE9GmPkdHR/5LitHzFiua+++5rduzY0Xzommvqe3JpMUUtO8xkW6yLL764efjhh+ulxnTdcwky02sAoN9kLVaO3hsHZjvjM844o/mzP/uzibuBl4CeaaBvfctb6qLU7DAzMjJSu+2jo6NfKi96pl5lPsgBgjuzbrq9Z1OMSni/qRSpe3ITiX3Dw8313/pWXaSaG1C89NJLteuQTsUXvvCFeskxRS/bRKbTnsKWr63qLuoBgH7x+te/vs5TT5Mpjxm73vrWtzbf+MY3mmeffbaG+X2jE5vFXPfRj9ZufJpTeW0aWiW4/073buN157UDHSC4M6+BvgT3f1u77iWkZ3eZdN0/dt11TVuwEtbzta9+9at1e8gUvLwvr09oP+uss5xIAPpGpsWcdtpptcGUaZ25apy1Wtl0IcG93R5y965ddQOGSy+5pPlm+Xp7w6UyJt5cvs3tbrCE4M6CONjcvFKk/m8pUo+0Betv/+Zv6p7uF73hDZP72Ca8Z/V9OhIXXXTR5ELVzHvPZcfMeweAfnD22WfX5lLGroT1dN1PP/30evU4V5HzeRpW8clPfKLeOfXRRx+tV6Iz572Mhb/ZbsTwagcI7syrbtf9N1LEUtCyOOfBBx9sPvWpT9XnM98vX8++7V/60pdqwctUmS1bttSuRnaf2bBhgxMJwIJLUynd9nZKaPZtT8MpV41feOGFOm6lcZW57VdffXVz9llnNd/8+tebJRNjYY7vlG/zXWcSwZ2F+8tRiteBju5Nlb40PDx8V4pW5vd9oxSxDWee2bz//e+vd5NLAUxwT4f9r/7qr+qi1L1799ZdZ9LVSCcj8wUBYCGde+65dRzL5gq5eWDuhnrXXXfVnWTSdEpoz7iWbvwvfPzjzc0331yng+br+8qYVsa5X3UWEdzp+2BfitU/yiXCzGvftXNnc9ONNzYfv+662r3INpAJ7wnnuTFF9nfPpcjsiRuZ657iCAALJQtSc8OljElZjJrOe64OJ5wnqEd748F/8OlP16B+yy23TEyRKR8P79v3hfL8nXndwbaAtB0kgjsLrhSgW0tw/2LC+5KlS5sf3Xln8/z27c0vf+YztcjlSMFLxyJzAe+4447aac9lyMidVM8880wnEoB5l6vC55xzTn1MBz3TOHNl+MYbb6zrsHJ1OQ2o7Jj2jiuvbK58+9vrFJnsDJNxb2h4eN/Y2NivLrHFI4I7fRDKZ9Q1KEXrc0NDQ3treC/FK9tDXnj++c373/e+ya57XpvwnsU8DzzwQJ0vuL0E/Lw+q/ZzeRIA5tMFF1xQx6YXX3yxNpky9fM73/lODfBZm5XxKxsuZMz69C/+YnPbLbc0W7dtq4tUM+2zPP5K+TY7nEkEdxaF7ur4l0rx+mwtYqXoZR7gzTfd1Fz74Q/XTkYKYnf/9zptJotY033PPPdMm8nlydxK2kp7AOZLtiXOkcWnGb/SfLr11lsnbxYY7VTQz332s81L5XV333133UltcHAwz32vPPc/jV0I7iy68F6K158ODw395eDevXV6zGOPPdZseuih5jO/9EvNyhLME+bbS4mZM5jFPzlSEDNtJvML3/jGNzqZAMy5rMPKmJNuesanHPfee28dp9Jtb68qZ9rMRz/ykbrxQrY3Tkc+O8uU0D5exrpfENoR3Fmcf5GyUHVs7JNDQ0PbEt7HSiDPivzcWfWXP/3pWuz2Dg5OdtVzI4ssWH3yySdrEXzqqafqrjPp0APAXMn4c9lll9XQnimb6bjnfiPtXu3tNNA8n7uC/9S739384Ac/aHaXsSoBfyjd9qGhT5aXPC24I7izmA3u27fvmsGhoWZPKW6ZNrNx48Zm/Wmn1Z1msvo+Ab4tdFn4kznwuatqptOkA5+FqlnhDwCzLVMzL7300rrYNDvHJLTnqm+mbna3Oa6NqIT2Cy+8sPnIhz/c3HfffXVaZ95Tp9QMDf1hed0XhXYWwjKngNlSF6GOj99WCts/KYXvv9f93pcta+66++7m8ssua3aVMP+1r3+9djtSJFMgc0kyU2sS3DNnMMf69evrFJoUVdtmATAbsglCtiBOWM+dUdNIyhz2dj57ZNzK82kgfeoTn6jbQ+aK8EslyO/dsydTZ24bHRv7rNCO4E7/eQ2huYb3sbH/MTg0dFH5uG6Rtawc2U3mqne8oxbJv7vxxv3Ce9vlyHN1Ss3evXUFf55vby8NAIcb3BPY003PmJMGUcaZ3vEroT3No8986lPN7l27msc2b65fS7d9cHDwmTJGfeDlIVJjCcGdI8BACepjo6O/NjQ0tKEUwr+fz7PHewrkT77rXc342Fhz080316ky7XzCFMx228iE91yWTKBPRz5fz+VJADgUbTDPeLJnomM+OV0zX+tJ7fXKb+4zkm0fR8s49cgjjzTbd+xoduaK8N69+4oPlPfudFYR3DnidO+qeu3g4OA3S6FLsWuWZupMKZRZ6JNA/o1vfasZGR1tVh93XO18tB2PtqDm9tP5PDfGyOftlBohHoCDOeWUU2pjKGNRmkHtzQCzlWPvWJPHfC3rrbI5wic+9rH6tU2bNjXbnnuuduhL2B8fHhn5mfLy+9sGEwju9J/DnMOXAleK5c+WondDqXQ/Pfn1cvzElVfWy5Zf/upXmxdKGD/pxBNfUQxTZFN0E9Sz//vJJ59ci3G+npX9WVAkxAOQ8SZ34s6RRk+OBPZMc2mDe29gjyW5mjs8XNdWXXbppc21H/pQ3VQhnfYtzzwzEdr37Mk4k+kx3xPaEdw5GoppZ2xs7Gf2Dg7+bSl3H8xtolP20l+/7JJLmpPXrGn+8stfrltyZX/3dr57W2DzcbohmZOY+e4J73ld5sjnxhkJ8blNdd6/Z6LAOukAR7iMFRkHMiZkeksaQan/GRMS0tt56Zkak6/tNy2mG9p3lufz3NXve1/z0+99b319bg749NNPN8+XcaUE+n3Dw8MfKOPQze19SGDBc5X/euRAXnfaabPyfVLwavd8YOBPVh177CdTbE859dRabM8777za8fjaN75Rd59Ztnx5c3wpwO3UmVbCe/6uZtFqjsyPbxe3ZnuvhPm8J1NpciTEp4vSvSV17bhM/Z4A9LdMmcyUl0yvTN1PQM8V2HTWM5akxreNnYwT+TxhPc2cqTvG1NAzcSW4XrVN6E+X/c1velPdPWbzY481zzz1VB1DyvfYWl73wfKWOzN2zPYuMk9v2+aXi+BO/wb3SLFcumTJ76xcterzx5aCu7YUzfUlvGdeYQrxbXfc0Xzz+uvrXMMU5+WlYI9P+fuZ4py/s+vWratFN8U8Eszz9bzvpJNOqsU6r20XI7UBvg3x+Vnao5332O4y0Ptvol04O9N/J/49AUdFeJhhkO193X7TVMq4kM+XdNc+teua0pDJ0Yb1rHFKYE9zJvU970lnPNNYUtfbjQ1Su1Pvs41wxpB2bVTvFdx4sYT87Jj29iuuaD74cz/XnHjCCc2jmzc3Tz7xRJ0e09095kdlnPhwef8TbeNIcEdw56gL7ims3Xnrnzlm5co/WrVy5cCJJWQnhOfGSxs2bKgr+K+/4Ybm9o0b63vSXc/7p/49TSclxTTvPeOMM2phz2sSzPNcu0d83t+79WQb3ntD+3TBvT0OFManDgYA7B/Yp4b23iN1vT16g3uO1O4cqdupybl6mq56AnkaL3lPnstr83xCfO7CnSZNAnu+3lu38+cl1Oe9udL7c1df3bzlsssmp8Zkn/ZtW7fWGwcODQ//eRkbfqm8Z18b/AV3BHeO2uDeE3wvK4X3T1atWnXxcatX18uetft+9tnNmjVrmvt//OPm7266qXl406aDBvg2iKcTkxtmJMinoCeUtyE+Rbct9G0HJ9Nr2h0H2sCe17VhfmqIny7AH6iTBHCkO1A9nK4u9ob1hOF6f48Srtuw3tbh1N/h7mLRdqpjO80xr03Nbut2QncN3CUA570H6rC3gT1XdX/y3e9u3lOO1P/sz56wnykyL0zsHJMx41+U9/9u+9725xLcEdw5qoN7vayZv3edzory3O+XgvuPU0gzxeW0ErxfVwJ4Anx2tfnRj37UfOf73282lyIbCehTuymRwpqCn++dkJ+uSnagaTvx7R3y8thuBzbdJdoMCku7e87n47qNZfm8d+A5UBcJ4KgNE90phW0tbJsevQ2QtqGSr7X1uJ262Ab09vVtHU6zpe2sZ+75s88+W+evJ9S389+n1uS8P3PYU+szFebKd7yjefe73tWcvn59s6W8/4nHH2+eLqF/awnPed3Q4OD95Wf4XHn7d3Pfkfbmg4I7gjuCe1tYm4ltIXMzplIoP7R82bLfO2blynMTzDN3fV0psOmgZ+eYFPQsXL319tubBx58sBbRFPSE8qnzz9vBIUeea/+DIN8zj3lPBoR8j3bKTDtg5GvtFmL5/vm585q2O9R2iHp3F5hazAV44GjXht22zrYd8xxt4O70hOMcCeDt/PZIsM/UmEyDyQ4x6Zz31uOpu8Sk9ub5dM4jdz9921vf2rzzyitrYM80zMxjT4d9awnv+Z7p6pd6/5/LOPQvyzg03o5NgjuCO4L7AYJ7CmRnotCvLoX4t0rR/vVc8sxCpLVr10524M8sRzy0aVPtwt97//317qrRzoecOpWmd/Bof452qkzmvbdHewfX3ltfR++0md7vCcAMAkZPY6UN3G2dbm98lEZJuxNMut+9O4K1Nbj3vfs1SbJuqby/Detp1FxwwQXNWy+/vLn04otrw+a57dubp558snl2y5bm2a1b67SY7vSZm0fHxj5f/oBbBnqupAruCO4I7q8S3Jtuce8W87eUAP9vSoi+ZmW2eVy9ull7yik1wKdrkhCfoJ2FRA888EBz349/3Dzy6KPN8y+8MPFnLV3arOouTprajW8vw/b+HFOnyrSd9d6j7QiZFgPw6nrXBfU2UHp382qvduZx6vqitjZPNzWxTovM2qbh4cnGzdkbNjRvvOii5uIS1vNx7tK9tYwR6a5nDvzWnsC+b9++R8r3+I/lz/nDphv+J/9DQHBHcEdwn3lw793Wq3hfKdy/XsL0z7Yd8jUnnzx5Z7zMYc9j3ps5jwnvmx55pHns8cdrke69EVO7O8HUQaB395jeRajtz9gb0qfuiLBf1weAVyzkn67G9jRp9qutU+tzO2a08+LbK6fpjp+6dm1z1pln1vuAXHjBBXVXsmNXrapbPWY8eK6E4syD3/7cc+2e7PkeW8dGR393vNP5r+XPGpn6MwvuCO4I7q8xuPe+tvhAef+vluD98wnguRSaxacnl8Kdxae1G19+zlwSzZ+TIp29eJ986qm648AzWci0Y0fdgaC95XX3h6j7xE/XUZ9a0Kd+PN1ABXDUB4oDhNvJr6fGTtM4adcYTXejvOw6tnbNmmb9unWT654ydTL1P/U7tT1d9dxBO3c7zWPmr+/etSuLTjOV5uHxsbE/KJX6D8q3e7Gt81P/I0NwR3BHcD+M4N5+3l46Ld/jyvLMP1y6bNnHl69YceIxK1bULvzxJcRn+8gE+fpYjpPKcdyxx9b37t6zp06jSfclcx13lCOLnXKr65dKYU8nZjg3Z3JnVYB5D/p1Z5i2KVNCemp66njWOOWq6rruVdY0bNJsGdq3r3mx1PQE9Dy+kLtll8fs856wvjdhPfPjx8ZuKDX9f5c/5otlEBmrIbznzxXcEdwR3OcguPcubOpeKj21fHxtedXHli1f/v7l3aJ/zMqVk7fCTnBPkc+RRa7tHffaxaejJaQPlsKe+Y71KOE9xX5vFkVl3+AyMAxlq7Jcnu2ZEz+dvvr309PN2u9nfPmH9ZcamLMQfrDn6r002psrlXrdNl8S2PO4Okep02m65Pm8J7U69Tld9QTzPO5K0yVHbsi0e3et29mBJvPex0ZHHy3jxP8rdfmLpW5vbLfy7ZQaPrljjOCO4I7gPj/Bfbwtvt1Lq8VF5fNrSnG+ZtmyZe8ur1na7r+ewaDeJruE99Xd4J4BIV/LcxkYMne+3U1maabMZHBptxhLYN8/oe8XinsHgN5APB//mgamC+xTQvsrtsnMMeU/QPzLB2alDk0Tage6NaY38C7pWSfUaV7eMGCkeyO9NE7qDjPdhkptrJRwvrt7DJavZceZBPV2O98Sqh8qx9dLffvaeKdzffkzRge6gbsdewR3BHcE9wUM7r3Ftv1aOTaUT99bHt9bXvuuclzQ7hizPHfby408ymN2qklwX9kePbfWXpY9hDPvvbuQNTsTNL2LUtuBaEpwX4h/QVND+kDvANo9p+3g0zlQWO9uxQkwK/VoSv1pa2VttqTedOey111kRkbqFMX2DtcJ7EPdbSAT4OsUxvJcQv3k7jMTO888PzY+fnv5njeVb3xT+f4/LB93BtomRvdRcOdItcwpYFEPGN1LsMXjpaD/cSmyf1zDfNNcNjIw8Lby/BVLBgffMlCCfHnd2sltxrIFZM9WkL03WEr3vX1uv0WrvY89/9HRF17eD/+AgXxg6s8PcDhlpyfkvrIkTdSiycDeE9rrkS0hu9tAjnW3hGwXqfZs3buvfJ9N5fHe8rixHLeV+vWjUr+eb4P5QPPy1USNCAR3WGQhfrIr0uncVYr4XaXg/9HYRIFfWwr9eeXxovLc+eWFFy4ZGHh9eTyjvGd9OVa9YsvHbsDdb0eEno7O1Okz8zpgtp2tnsDeu6Vl73Zr7bmZevVAeAcOO7hPbSB0a9N0u3J1pq9Zsa0cW8rxdDkeLU9vKo8PlscHywsem2yQZAcwpx3BHY7cIN8T6HeUgWBHGQRurZ2cMmDUhUtlKBgbHz+tBPrMCzqlHAn4a8vnJ5aPTy3HyvLeY8rjqvLaY8o3Wt79d9MP40f5n9EZKsfO8vGO8vPtKl94sXy8p/z85X/WeH7G48rPf2I5js//tnxczsGq8r9jqb8h/Zt/FuKfi18Dh/0XaCK0J55nJ4HR8lHukpSbagyWj/eVZ3eON832Znx858CSJbn19QulTm0rdWlrOfaMZwOCl6+iTjya0gf7/1szxx0AAPqfq04AACC4AwAAgjsAAAjuAACA4A4AAAjuAAAguAMAAII7AAAguAMAgOAOAAAI7gAAILgDAACCOwAAILgDAIDgDgAACO4AAIDgDgAAgjsAACC4AwAAgjsAAAjuAACA4A4AAII7AAAguAMAAII7AAAI7gAAgOAOAAAI7gAAILgDAACCOwAACO4AAIDgDgAACO4AACC4AwAAgjsAACC4AwCA4A4AAAjuAACA4A4AAII7AAAguAMAgOAOAAAI7gAAgOAOAACCOwAAILgDAACCOwAACO4AAIDgDgAAgjsAACC4AwAAgjsAAAjuAACA4A4AAAjuAAAguAMAAII7AAAguAMAgOAOAAAI7gAAILgDAACCOwAAILgDAIDgDgAACO4AAIDgDgAAgjsAACC4AwCA4A4AAAjuAACA4A4AAII7AAAguAMAAII7AAAI7gAAgOAOAAAI7gAAILgDAACCOwAACO4AAIDgDgAACO4AACC4AwAAgjsAACC4AwCA4A4AAAjuAAAguAMAAII7AAAguAMAgOAOAAAI7gAAgOAOAACCOwAAILgDAACCOwAACO4AAIDgDgAAgjsAACC4AwAAgjsAAAjuAACA4A4AAAjuAAAguAMAAII7AAAI7gAAgOAOAAAI7gAAILgDAACCOwAAILgDAIDgDgAACO4AAIDgDgAAgjsAACC4AwCA4A4AAAjuAACA4A4AAII7AAAguAMAAII7AAAI7gAAgOAOAACCOwAAILgDAACCOwAACO4AAIDgDgAACO4AACC4AwAAgjsAACC4AwCA4A4AAAjuAAAguAMAAII7AAAguAMAgOAOAAAI7gAAgOAOAACCOwAAILgDAIDgDgAACO4AAIDgDgAAgjsAACC4AwAAgjsAAAjuAACA4A4AAAjuAAAguAMAAII7AAAI7gAAgOAOAAAI7gAAILgDAACCOwAAILgDAIDgDgAACO4AACC4AwAAgjsAACC4AwCA4A4AAAjuAACA4A4AAII7AAAguAMAAII7AAAI7gAAgOAOAACCOwAAILgDAACCOwAACO4AAIDgDgAACO4AACC4AwAAgjsAAAjuAACA4A4AAAjuAAAguAMAAII7AAAguAMAgOAOAAAI7gAAgOAOAACCOwAAILgDAIDgDgAACO4AAIDgDgAAgjsAACC4AwAAgjsAAAjuAACA4A4AAII7AAAguAMAAII7AAAI7gAAgOAOAAAI7gAAILgDAACCOwAAILgDAIDgDgAACO4AACC4AwAAgjsAACC4AwCA4A4AAAjuAACA4A4AAII7AAAguAMAgOAOAAAI7gAAgOAOAACCOwAAILgDAACCOwAACO4AAIDgDgAACO4AACC4AwAAgjsAAAjuAACA4A4AAAjuAAAguAMAAII7AAAguAMAgOAOAAAI7gAAILg7BQAAILgDAACCOwAACO4AAIDgDgAACO4AACC4AwAAgjsAACC4AwCA4A4AAAjuAAAguAMAAII7AAAguAMAgOAOAAAI7gAAgOAOAACCOwAAILgDAACCOwAACO4AAIDgDgAAgjsAACC4AwAAgjsAAAjuAACA4A4AAAjuAAAguAMAAII7AAAI7gAAgOAOAAAI7gAAILgDAACCOwAAILgDAIDgDgAACO4AAIDgDgAAgjsAACC4AwCA4A4AAAjuAACA4A4AAII7AAAguAMAAII7AAAI7gAAgOAOAACCOwAAILgDAACCOwAACO4AAIDgDgAACO4AACC4AwAAgjsAACC4AwCA4A4AAAjuAAAguAMAAII7AAAguAMAgOAOAAAI7gAAgOAOAACCOwAAILgDAIDgDgAACO4AAIDgDgAAgjsAACC4AwAAgjsAAAjuAACA4A4AAAjuAAAguAMAAII7AAAI7gAAgOAOAAAI7gAAILgDAACCOwAAILgDAIDgDgAACO4AACC4AwAAgjsAACC4AwCA4A4AAAjuAACA4A4AAII7AAAguAMAAII7AAAI7gAAgOAOAACCOwAAILgDAACCOwAACO4AAIDgDgAACO4AACC4AwAAgjsAAAjuAACA4A4AAAjuAAAguAMAAII7AAAguAMAgOAOAAAI7gAAgOAOAACCOwAAILgDAIDgDgAACO4AAIDgDgAAgjsAACC4AwAAgjsAAAjuAACA4A4AAII7AAAguAMAAII7AAAI7gAAgOAOAAAI7gAAILgDAACCOwAAILgDAIDgDgAACO4AACC4AwAAgjsAACC4AwCA4A4AAAjuAACA4A4AAII7AAAguAMAgOAOAAAI7gAAgOAOAACCOwAAILgDAACCOwAACO4AAIDgDgAACO4AACC4AwAAgjsAAAjuAACA4A4AAAjuAAAguAMAAII7AAAguAMAgOAOAAAI7gAAILgDAACCOwAAILgDAIDgDgAACO4AAIDgDgAAgjsAACC4AwAAgjsAAAjuAACA4A4AAII7AADQb/6/AAMAVpD6A9ujOlUAAAAASUVORK5CYII=;" vertex="1" parent="1">
          <mxGeometry x="140.63" y="350" width="59.37" height="120" as="geometry" />
        </mxCell>
        <mxCell id="L26KNRqS2CPZ2x79atgm-58" style="edgeStyle=orthogonalEdgeStyle;rounded=0;orthogonalLoop=1;jettySize=auto;html=1;entryX=0;entryY=0.7;entryDx=0;entryDy=0;" edge="1" parent="1" source="L26KNRqS2CPZ2x79atgm-49" target="L26KNRqS2CPZ2x79atgm-21">
          <mxGeometry relative="1" as="geometry" />
        </mxCell>
        <mxCell id="L26KNRqS2CPZ2x79atgm-49" value="API" style="swimlane;startSize=20;horizontal=0;childLayout=treeLayout;horizontalTree=1;resizable=0;containerType=tree;fontSize=12;" vertex="1" parent="1">
          <mxGeometry x="310" y="411.5" width="310" height="80" as="geometry" />
        </mxCell>
        <mxCell id="L26KNRqS2CPZ2x79atgm-50" value="Controladores" style="whiteSpace=wrap;html=1;" vertex="1" parent="L26KNRqS2CPZ2x79atgm-49">
          <mxGeometry x="40" y="20" width="100" height="40" as="geometry" />
        </mxCell>
        <mxCell id="L26KNRqS2CPZ2x79atgm-53" value="Modelos" style="whiteSpace=wrap;html=1;" vertex="1" parent="L26KNRqS2CPZ2x79atgm-49">
          <mxGeometry x="190" y="20" width="100" height="40" as="geometry" />
        </mxCell>
        <mxCell id="L26KNRqS2CPZ2x79atgm-54" value="" style="edgeStyle=elbowEdgeStyle;elbow=vertical;html=1;rounded=1;curved=0;sourcePerimeterSpacing=0;targetPerimeterSpacing=0;shape=link;" edge="1" parent="L26KNRqS2CPZ2x79atgm-49" source="L26KNRqS2CPZ2x79atgm-50" target="L26KNRqS2CPZ2x79atgm-53">
          <mxGeometry relative="1" as="geometry" />
        </mxCell>
        <mxCell id="L26KNRqS2CPZ2x79atgm-59" value="RequisiÃ§Ãµes REST" style="text;html=1;align=center;verticalAlign=middle;resizable=0;points=[];autosize=1;strokeColor=none;fillColor=none;" vertex="1" parent="1">
          <mxGeometry x="189.54" y="380" width="120" height="30" as="geometry" />
        </mxCell>
        <mxCell id="L26KNRqS2CPZ2x79atgm-60" value="RequisiÃ§Ãµes REST" style="text;html=1;align=center;verticalAlign=middle;resizable=0;points=[];autosize=1;strokeColor=none;fillColor=none;" vertex="1" parent="1">
          <mxGeometry x="209.54" y="625.47" width="120" height="30" as="geometry" />
        </mxCell>
        <mxCell id="L26KNRqS2CPZ2x79atgm-61" value="HTTP" style="text;html=1;align=center;verticalAlign=middle;resizable=0;points=[];autosize=1;strokeColor=none;fillColor=none;" vertex="1" parent="1">
          <mxGeometry x="440" y="370" width="50" height="30" as="geometry" />
        </mxCell>
        <mxCell id="L26KNRqS2CPZ2x79atgm-64" value="HTTP" style="text;html=1;align=center;verticalAlign=middle;resizable=0;points=[];autosize=1;strokeColor=none;fillColor=none;" vertex="1" parent="1">
          <mxGeometry x="440" y="504.5" width="50" height="30" as="geometry" />
        </mxCell>
      </root>
    </mxGraphModel>
  </diagram>
</mxfile>
